<?xml version="1.0" encoding="utf-8" standalone="no"?>
<!DOCTYPE svg PUBLIC "-//W3C//DTD SVG 1.1//EN"
  "http://www.w3.org/Graphics/SVG/1.1/DTD/svg11.dtd">
<svg xmlns:xlink="http://www.w3.org/1999/xlink" width="576pt" height="432pt" viewBox="0 0 576 432" xmlns="http://www.w3.org/2000/svg" version="1.1">
 <metadata>
  <rdf:RDF xmlns:dc="http://purl.org/dc/elements/1.1/" xmlns:cc="http://creativecommons.org/ns#" xmlns:rdf="http://www.w3.org/1999/02/22-rdf-syntax-ns#">
   <cc:Work>
    <dc:type rdf:resource="http://purl.org/dc/dcmitype/StillImage"/>
    <dc:date>2024-11-19T16:55:54.424715</dc:date>
    <dc:format>image/svg+xml</dc:format>
    <dc:creator>
     <cc:Agent>
      <dc:title>Matplotlib v3.9.2, https://matplotlib.org/</dc:title>
     </cc:Agent>
    </dc:creator>
   </cc:Work>
  </rdf:RDF>
 </metadata>
 <defs>
  <style type="text/css">*{stroke-linejoin: round; stroke-linecap: butt}</style>
 </defs>
 <g id="figure_1">
  <g id="patch_1">
   <path d="M 0 432 
L 576 432 
L 576 0 
L 0 0 
z
" style="fill: #ffffff"/>
  </g>
  <g id="axes_1">
   <g id="patch_2">
    <path d="M 72 384.48 
L 518.4 384.48 
L 518.4 51.84 
L 72 51.84 
z
" style="fill: #ffffff"/>
   </g>
   <g id="PathCollection_1">
    <defs>
     <path id="m3104d1ad47" d="M 0 3 
C 0.795609 3 1.55874 2.683901 2.12132 2.12132 
C 2.683901 1.55874 3 0.795609 3 0 
C 3 -0.795609 2.683901 -1.55874 2.12132 -2.12132 
C 1.55874 -2.683901 0.795609 -3 0 -3 
C -0.795609 -3 -1.55874 -2.683901 -2.12132 -2.12132 
C -2.683901 -1.55874 -3 -0.795609 -3 0 
C -3 0.795609 -2.683901 1.55874 -2.12132 2.12132 
C -1.55874 2.683901 -0.795609 3 0 3 
z
" style="stroke: #ff0000"/>
    </defs>
    <g clip-path="url(#pf04d96d206)">
     <use xlink:href="#m3104d1ad47" x="92.290909" y="369.36" style="fill: #ff0000; stroke: #ff0000"/>
     <use xlink:href="#m3104d1ad47" x="193.745455" y="350.46" style="fill: #ff0000; stroke: #ff0000"/>
     <use xlink:href="#m3104d1ad47" x="295.2" y="293.76" style="fill: #ff0000; stroke: #ff0000"/>
     <use xlink:href="#m3104d1ad47" x="396.654545" y="199.26" style="fill: #ff0000; stroke: #ff0000"/>
     <use xlink:href="#m3104d1ad47" x="498.109091" y="66.96" style="fill: #ff0000; stroke: #ff0000"/>
    </g>
   </g>
   <g id="matplotlib.axis_1">
    <g id="xtick_1">
     <g id="line2d_1">
      <path d="M 92.290909 384.48 
L 92.290909 51.84 
" clip-path="url(#pf04d96d206)" style="fill: none; stroke: #b0b0b0; stroke-width: 0.8; stroke-linecap: square"/>
     </g>
     <g id="line2d_2">
      <defs>
       <path id="m2d6ed7f1de" d="M 0 0 
L 0 3.5 
" style="stroke: #000000; stroke-width: 0.8"/>
      </defs>
      <g>
       <use xlink:href="#m2d6ed7f1de" x="92.290909" y="384.48" style="stroke: #000000; stroke-width: 0.8"/>
      </g>
     </g>
     <g id="text_1">
      <!-- 0.0 -->
      <g transform="translate(84.339347 399.078438) scale(0.1 -0.1)">
       <defs>
        <path id="DejaVuSans-30" d="M 2034 4250 
Q 1547 4250 1301 3770 
Q 1056 3291 1056 2328 
Q 1056 1369 1301 889 
Q 1547 409 2034 409 
Q 2525 409 2770 889 
Q 3016 1369 3016 2328 
Q 3016 3291 2770 3770 
Q 2525 4250 2034 4250 
z
M 2034 4750 
Q 2819 4750 3233 4129 
Q 3647 3509 3647 2328 
Q 3647 1150 3233 529 
Q 2819 -91 2034 -91 
Q 1250 -91 836 529 
Q 422 1150 422 2328 
Q 422 3509 836 4129 
Q 1250 4750 2034 4750 
z
" transform="scale(0.015625)"/>
        <path id="DejaVuSans-2e" d="M 684 794 
L 1344 794 
L 1344 0 
L 684 0 
L 684 794 
z
" transform="scale(0.015625)"/>
       </defs>
       <use xlink:href="#DejaVuSans-30"/>
       <use xlink:href="#DejaVuSans-2e" x="63.623047"/>
       <use xlink:href="#DejaVuSans-30" x="95.410156"/>
      </g>
     </g>
    </g>
    <g id="xtick_2">
     <g id="line2d_3">
      <path d="M 143.018182 384.48 
L 143.018182 51.84 
" clip-path="url(#pf04d96d206)" style="fill: none; stroke: #b0b0b0; stroke-width: 0.8; stroke-linecap: square"/>
     </g>
     <g id="line2d_4">
      <g>
       <use xlink:href="#m2d6ed7f1de" x="143.018182" y="384.48" style="stroke: #000000; stroke-width: 0.8"/>
      </g>
     </g>
     <g id="text_2">
      <!-- 0.5 -->
      <g transform="translate(135.066619 399.078438) scale(0.1 -0.1)">
       <defs>
        <path id="DejaVuSans-35" d="M 691 4666 
L 3169 4666 
L 3169 4134 
L 1269 4134 
L 1269 2991 
Q 1406 3038 1543 3061 
Q 1681 3084 1819 3084 
Q 2600 3084 3056 2656 
Q 3513 2228 3513 1497 
Q 3513 744 3044 326 
Q 2575 -91 1722 -91 
Q 1428 -91 1123 -41 
Q 819 9 494 109 
L 494 744 
Q 775 591 1075 516 
Q 1375 441 1709 441 
Q 2250 441 2565 725 
Q 2881 1009 2881 1497 
Q 2881 1984 2565 2268 
Q 2250 2553 1709 2553 
Q 1456 2553 1204 2497 
Q 953 2441 691 2322 
L 691 4666 
z
" transform="scale(0.015625)"/>
       </defs>
       <use xlink:href="#DejaVuSans-30"/>
       <use xlink:href="#DejaVuSans-2e" x="63.623047"/>
       <use xlink:href="#DejaVuSans-35" x="95.410156"/>
      </g>
     </g>
    </g>
    <g id="xtick_3">
     <g id="line2d_5">
      <path d="M 193.745455 384.48 
L 193.745455 51.84 
" clip-path="url(#pf04d96d206)" style="fill: none; stroke: #b0b0b0; stroke-width: 0.8; stroke-linecap: square"/>
     </g>
     <g id="line2d_6">
      <g>
       <use xlink:href="#m2d6ed7f1de" x="193.745455" y="384.48" style="stroke: #000000; stroke-width: 0.8"/>
      </g>
     </g>
     <g id="text_3">
      <!-- 1.0 -->
      <g transform="translate(185.793892 399.078438) scale(0.1 -0.1)">
       <defs>
        <path id="DejaVuSans-31" d="M 794 531 
L 1825 531 
L 1825 4091 
L 703 3866 
L 703 4441 
L 1819 4666 
L 2450 4666 
L 2450 531 
L 3481 531 
L 3481 0 
L 794 0 
L 794 531 
z
" transform="scale(0.015625)"/>
       </defs>
       <use xlink:href="#DejaVuSans-31"/>
       <use xlink:href="#DejaVuSans-2e" x="63.623047"/>
       <use xlink:href="#DejaVuSans-30" x="95.410156"/>
      </g>
     </g>
    </g>
    <g id="xtick_4">
     <g id="line2d_7">
      <path d="M 244.472727 384.48 
L 244.472727 51.84 
" clip-path="url(#pf04d96d206)" style="fill: none; stroke: #b0b0b0; stroke-width: 0.8; stroke-linecap: square"/>
     </g>
     <g id="line2d_8">
      <g>
       <use xlink:href="#m2d6ed7f1de" x="244.472727" y="384.48" style="stroke: #000000; stroke-width: 0.8"/>
      </g>
     </g>
     <g id="text_4">
      <!-- 1.5 -->
      <g transform="translate(236.521165 399.078438) scale(0.1 -0.1)">
       <use xlink:href="#DejaVuSans-31"/>
       <use xlink:href="#DejaVuSans-2e" x="63.623047"/>
       <use xlink:href="#DejaVuSans-35" x="95.410156"/>
      </g>
     </g>
    </g>
    <g id="xtick_5">
     <g id="line2d_9">
      <path d="M 295.2 384.48 
L 295.2 51.84 
" clip-path="url(#pf04d96d206)" style="fill: none; stroke: #b0b0b0; stroke-width: 0.8; stroke-linecap: square"/>
     </g>
     <g id="line2d_10">
      <g>
       <use xlink:href="#m2d6ed7f1de" x="295.2" y="384.48" style="stroke: #000000; stroke-width: 0.8"/>
      </g>
     </g>
     <g id="text_5">
      <!-- 2.0 -->
      <g transform="translate(287.248437 399.078438) scale(0.1 -0.1)">
       <defs>
        <path id="DejaVuSans-32" d="M 1228 531 
L 3431 531 
L 3431 0 
L 469 0 
L 469 531 
Q 828 903 1448 1529 
Q 2069 2156 2228 2338 
Q 2531 2678 2651 2914 
Q 2772 3150 2772 3378 
Q 2772 3750 2511 3984 
Q 2250 4219 1831 4219 
Q 1534 4219 1204 4116 
Q 875 4013 500 3803 
L 500 4441 
Q 881 4594 1212 4672 
Q 1544 4750 1819 4750 
Q 2544 4750 2975 4387 
Q 3406 4025 3406 3419 
Q 3406 3131 3298 2873 
Q 3191 2616 2906 2266 
Q 2828 2175 2409 1742 
Q 1991 1309 1228 531 
z
" transform="scale(0.015625)"/>
       </defs>
       <use xlink:href="#DejaVuSans-32"/>
       <use xlink:href="#DejaVuSans-2e" x="63.623047"/>
       <use xlink:href="#DejaVuSans-30" x="95.410156"/>
      </g>
     </g>
    </g>
    <g id="xtick_6">
     <g id="line2d_11">
      <path d="M 345.927273 384.48 
L 345.927273 51.84 
" clip-path="url(#pf04d96d206)" style="fill: none; stroke: #b0b0b0; stroke-width: 0.8; stroke-linecap: square"/>
     </g>
     <g id="line2d_12">
      <g>
       <use xlink:href="#m2d6ed7f1de" x="345.927273" y="384.48" style="stroke: #000000; stroke-width: 0.8"/>
      </g>
     </g>
     <g id="text_6">
      <!-- 2.5 -->
      <g transform="translate(337.97571 399.078438) scale(0.1 -0.1)">
       <use xlink:href="#DejaVuSans-32"/>
       <use xlink:href="#DejaVuSans-2e" x="63.623047"/>
       <use xlink:href="#DejaVuSans-35" x="95.410156"/>
      </g>
     </g>
    </g>
    <g id="xtick_7">
     <g id="line2d_13">
      <path d="M 396.654545 384.48 
L 396.654545 51.84 
" clip-path="url(#pf04d96d206)" style="fill: none; stroke: #b0b0b0; stroke-width: 0.8; stroke-linecap: square"/>
     </g>
     <g id="line2d_14">
      <g>
       <use xlink:href="#m2d6ed7f1de" x="396.654545" y="384.48" style="stroke: #000000; stroke-width: 0.8"/>
      </g>
     </g>
     <g id="text_7">
      <!-- 3.0 -->
      <g transform="translate(388.702983 399.078438) scale(0.1 -0.1)">
       <defs>
        <path id="DejaVuSans-33" d="M 2597 2516 
Q 3050 2419 3304 2112 
Q 3559 1806 3559 1356 
Q 3559 666 3084 287 
Q 2609 -91 1734 -91 
Q 1441 -91 1130 -33 
Q 819 25 488 141 
L 488 750 
Q 750 597 1062 519 
Q 1375 441 1716 441 
Q 2309 441 2620 675 
Q 2931 909 2931 1356 
Q 2931 1769 2642 2001 
Q 2353 2234 1838 2234 
L 1294 2234 
L 1294 2753 
L 1863 2753 
Q 2328 2753 2575 2939 
Q 2822 3125 2822 3475 
Q 2822 3834 2567 4026 
Q 2313 4219 1838 4219 
Q 1578 4219 1281 4162 
Q 984 4106 628 3988 
L 628 4550 
Q 988 4650 1302 4700 
Q 1616 4750 1894 4750 
Q 2613 4750 3031 4423 
Q 3450 4097 3450 3541 
Q 3450 3153 3228 2886 
Q 3006 2619 2597 2516 
z
" transform="scale(0.015625)"/>
       </defs>
       <use xlink:href="#DejaVuSans-33"/>
       <use xlink:href="#DejaVuSans-2e" x="63.623047"/>
       <use xlink:href="#DejaVuSans-30" x="95.410156"/>
      </g>
     </g>
    </g>
    <g id="xtick_8">
     <g id="line2d_15">
      <path d="M 447.381818 384.48 
L 447.381818 51.84 
" clip-path="url(#pf04d96d206)" style="fill: none; stroke: #b0b0b0; stroke-width: 0.8; stroke-linecap: square"/>
     </g>
     <g id="line2d_16">
      <g>
       <use xlink:href="#m2d6ed7f1de" x="447.381818" y="384.48" style="stroke: #000000; stroke-width: 0.8"/>
      </g>
     </g>
     <g id="text_8">
      <!-- 3.5 -->
      <g transform="translate(439.430256 399.078438) scale(0.1 -0.1)">
       <use xlink:href="#DejaVuSans-33"/>
       <use xlink:href="#DejaVuSans-2e" x="63.623047"/>
       <use xlink:href="#DejaVuSans-35" x="95.410156"/>
      </g>
     </g>
    </g>
    <g id="xtick_9">
     <g id="line2d_17">
      <path d="M 498.109091 384.48 
L 498.109091 51.84 
" clip-path="url(#pf04d96d206)" style="fill: none; stroke: #b0b0b0; stroke-width: 0.8; stroke-linecap: square"/>
     </g>
     <g id="line2d_18">
      <g>
       <use xlink:href="#m2d6ed7f1de" x="498.109091" y="384.48" style="stroke: #000000; stroke-width: 0.8"/>
      </g>
     </g>
     <g id="text_9">
      <!-- 4.0 -->
      <g transform="translate(490.157528 399.078438) scale(0.1 -0.1)">
       <defs>
        <path id="DejaVuSans-34" d="M 2419 4116 
L 825 1625 
L 2419 1625 
L 2419 4116 
z
M 2253 4666 
L 3047 4666 
L 3047 1625 
L 3713 1625 
L 3713 1100 
L 3047 1100 
L 3047 0 
L 2419 0 
L 2419 1100 
L 313 1100 
L 313 1709 
L 2253 4666 
z
" transform="scale(0.015625)"/>
       </defs>
       <use xlink:href="#DejaVuSans-34"/>
       <use xlink:href="#DejaVuSans-2e" x="63.623047"/>
       <use xlink:href="#DejaVuSans-30" x="95.410156"/>
      </g>
     </g>
    </g>
    <g id="text_10">
     <!-- X -->
     <g transform="translate(291.775 412.756563) scale(0.1 -0.1)">
      <defs>
       <path id="DejaVuSans-58" d="M 403 4666 
L 1081 4666 
L 2241 2931 
L 3406 4666 
L 4084 4666 
L 2584 2425 
L 4184 0 
L 3506 0 
L 2194 1984 
L 872 0 
L 191 0 
L 1856 2491 
L 403 4666 
z
" transform="scale(0.015625)"/>
      </defs>
      <use xlink:href="#DejaVuSans-58"/>
     </g>
    </g>
   </g>
   <g id="matplotlib.axis_2">
    <g id="ytick_1">
     <g id="line2d_19">
      <path d="M 72 369.36 
L 518.4 369.36 
" clip-path="url(#pf04d96d206)" style="fill: none; stroke: #b0b0b0; stroke-width: 0.8; stroke-linecap: square"/>
     </g>
     <g id="line2d_20">
      <defs>
       <path id="mdb351575dc" d="M 0 0 
L -3.5 0 
" style="stroke: #000000; stroke-width: 0.8"/>
      </defs>
      <g>
       <use xlink:href="#mdb351575dc" x="72" y="369.36" style="stroke: #000000; stroke-width: 0.8"/>
      </g>
     </g>
     <g id="text_11">
      <!-- 0 -->
      <g transform="translate(58.6375 373.159219) scale(0.1 -0.1)">
       <use xlink:href="#DejaVuSans-30"/>
      </g>
     </g>
    </g>
    <g id="ytick_2">
     <g id="line2d_21">
      <path d="M 72 331.56 
L 518.4 331.56 
" clip-path="url(#pf04d96d206)" style="fill: none; stroke: #b0b0b0; stroke-width: 0.8; stroke-linecap: square"/>
     </g>
     <g id="line2d_22">
      <g>
       <use xlink:href="#mdb351575dc" x="72" y="331.56" style="stroke: #000000; stroke-width: 0.8"/>
      </g>
     </g>
     <g id="text_12">
      <!-- 2 -->
      <g transform="translate(58.6375 335.359219) scale(0.1 -0.1)">
       <use xlink:href="#DejaVuSans-32"/>
      </g>
     </g>
    </g>
    <g id="ytick_3">
     <g id="line2d_23">
      <path d="M 72 293.76 
L 518.4 293.76 
" clip-path="url(#pf04d96d206)" style="fill: none; stroke: #b0b0b0; stroke-width: 0.8; stroke-linecap: square"/>
     </g>
     <g id="line2d_24">
      <g>
       <use xlink:href="#mdb351575dc" x="72" y="293.76" style="stroke: #000000; stroke-width: 0.8"/>
      </g>
     </g>
     <g id="text_13">
      <!-- 4 -->
      <g transform="translate(58.6375 297.559219) scale(0.1 -0.1)">
       <use xlink:href="#DejaVuSans-34"/>
      </g>
     </g>
    </g>
    <g id="ytick_4">
     <g id="line2d_25">
      <path d="M 72 255.96 
L 518.4 255.96 
" clip-path="url(#pf04d96d206)" style="fill: none; stroke: #b0b0b0; stroke-width: 0.8; stroke-linecap: square"/>
     </g>
     <g id="line2d_26">
      <g>
       <use xlink:href="#mdb351575dc" x="72" y="255.96" style="stroke: #000000; stroke-width: 0.8"/>
      </g>
     </g>
     <g id="text_14">
      <!-- 6 -->
      <g transform="translate(58.6375 259.759219) scale(0.1 -0.1)">
       <defs>
        <path id="DejaVuSans-36" d="M 2113 2584 
Q 1688 2584 1439 2293 
Q 1191 2003 1191 1497 
Q 1191 994 1439 701 
Q 1688 409 2113 409 
Q 2538 409 2786 701 
Q 3034 994 3034 1497 
Q 3034 2003 2786 2293 
Q 2538 2584 2113 2584 
z
M 3366 4563 
L 3366 3988 
Q 3128 4100 2886 4159 
Q 2644 4219 2406 4219 
Q 1781 4219 1451 3797 
Q 1122 3375 1075 2522 
Q 1259 2794 1537 2939 
Q 1816 3084 2150 3084 
Q 2853 3084 3261 2657 
Q 3669 2231 3669 1497 
Q 3669 778 3244 343 
Q 2819 -91 2113 -91 
Q 1303 -91 875 529 
Q 447 1150 447 2328 
Q 447 3434 972 4092 
Q 1497 4750 2381 4750 
Q 2619 4750 2861 4703 
Q 3103 4656 3366 4563 
z
" transform="scale(0.015625)"/>
       </defs>
       <use xlink:href="#DejaVuSans-36"/>
      </g>
     </g>
    </g>
    <g id="ytick_5">
     <g id="line2d_27">
      <path d="M 72 218.16 
L 518.4 218.16 
" clip-path="url(#pf04d96d206)" style="fill: none; stroke: #b0b0b0; stroke-width: 0.8; stroke-linecap: square"/>
     </g>
     <g id="line2d_28">
      <g>
       <use xlink:href="#mdb351575dc" x="72" y="218.16" style="stroke: #000000; stroke-width: 0.8"/>
      </g>
     </g>
     <g id="text_15">
      <!-- 8 -->
      <g transform="translate(58.6375 221.959219) scale(0.1 -0.1)">
       <defs>
        <path id="DejaVuSans-38" d="M 2034 2216 
Q 1584 2216 1326 1975 
Q 1069 1734 1069 1313 
Q 1069 891 1326 650 
Q 1584 409 2034 409 
Q 2484 409 2743 651 
Q 3003 894 3003 1313 
Q 3003 1734 2745 1975 
Q 2488 2216 2034 2216 
z
M 1403 2484 
Q 997 2584 770 2862 
Q 544 3141 544 3541 
Q 544 4100 942 4425 
Q 1341 4750 2034 4750 
Q 2731 4750 3128 4425 
Q 3525 4100 3525 3541 
Q 3525 3141 3298 2862 
Q 3072 2584 2669 2484 
Q 3125 2378 3379 2068 
Q 3634 1759 3634 1313 
Q 3634 634 3220 271 
Q 2806 -91 2034 -91 
Q 1263 -91 848 271 
Q 434 634 434 1313 
Q 434 1759 690 2068 
Q 947 2378 1403 2484 
z
M 1172 3481 
Q 1172 3119 1398 2916 
Q 1625 2713 2034 2713 
Q 2441 2713 2670 2916 
Q 2900 3119 2900 3481 
Q 2900 3844 2670 4047 
Q 2441 4250 2034 4250 
Q 1625 4250 1398 4047 
Q 1172 3844 1172 3481 
z
" transform="scale(0.015625)"/>
       </defs>
       <use xlink:href="#DejaVuSans-38"/>
      </g>
     </g>
    </g>
    <g id="ytick_6">
     <g id="line2d_29">
      <path d="M 72 180.36 
L 518.4 180.36 
" clip-path="url(#pf04d96d206)" style="fill: none; stroke: #b0b0b0; stroke-width: 0.8; stroke-linecap: square"/>
     </g>
     <g id="line2d_30">
      <g>
       <use xlink:href="#mdb351575dc" x="72" y="180.36" style="stroke: #000000; stroke-width: 0.8"/>
      </g>
     </g>
     <g id="text_16">
      <!-- 10 -->
      <g transform="translate(52.275 184.159219) scale(0.1 -0.1)">
       <use xlink:href="#DejaVuSans-31"/>
       <use xlink:href="#DejaVuSans-30" x="63.623047"/>
      </g>
     </g>
    </g>
    <g id="ytick_7">
     <g id="line2d_31">
      <path d="M 72 142.56 
L 518.4 142.56 
" clip-path="url(#pf04d96d206)" style="fill: none; stroke: #b0b0b0; stroke-width: 0.8; stroke-linecap: square"/>
     </g>
     <g id="line2d_32">
      <g>
       <use xlink:href="#mdb351575dc" x="72" y="142.56" style="stroke: #000000; stroke-width: 0.8"/>
      </g>
     </g>
     <g id="text_17">
      <!-- 12 -->
      <g transform="translate(52.275 146.359219) scale(0.1 -0.1)">
       <use xlink:href="#DejaVuSans-31"/>
       <use xlink:href="#DejaVuSans-32" x="63.623047"/>
      </g>
     </g>
    </g>
    <g id="ytick_8">
     <g id="line2d_33">
      <path d="M 72 104.76 
L 518.4 104.76 
" clip-path="url(#pf04d96d206)" style="fill: none; stroke: #b0b0b0; stroke-width: 0.8; stroke-linecap: square"/>
     </g>
     <g id="line2d_34">
      <g>
       <use xlink:href="#mdb351575dc" x="72" y="104.76" style="stroke: #000000; stroke-width: 0.8"/>
      </g>
     </g>
     <g id="text_18">
      <!-- 14 -->
      <g transform="translate(52.275 108.559219) scale(0.1 -0.1)">
       <use xlink:href="#DejaVuSans-31"/>
       <use xlink:href="#DejaVuSans-34" x="63.623047"/>
      </g>
     </g>
    </g>
    <g id="ytick_9">
     <g id="line2d_35">
      <path d="M 72 66.96 
L 518.4 66.96 
" clip-path="url(#pf04d96d206)" style="fill: none; stroke: #b0b0b0; stroke-width: 0.8; stroke-linecap: square"/>
     </g>
     <g id="line2d_36">
      <g>
       <use xlink:href="#mdb351575dc" x="72" y="66.96" style="stroke: #000000; stroke-width: 0.8"/>
      </g>
     </g>
     <g id="text_19">
      <!-- 16 -->
      <g transform="translate(52.275 70.759219) scale(0.1 -0.1)">
       <use xlink:href="#DejaVuSans-31"/>
       <use xlink:href="#DejaVuSans-36" x="63.623047"/>
      </g>
     </g>
    </g>
    <g id="text_20">
     <!-- Y -->
     <g transform="translate(46.195312 221.213906) rotate(-90) scale(0.1 -0.1)">
      <defs>
       <path id="DejaVuSans-59" d="M -13 4666 
L 666 4666 
L 1959 2747 
L 3244 4666 
L 3922 4666 
L 2272 2222 
L 2272 0 
L 1638 0 
L 1638 2222 
L -13 4666 
z
" transform="scale(0.015625)"/>
      </defs>
      <use xlink:href="#DejaVuSans-59"/>
     </g>
    </g>
   </g>
   <g id="line2d_37">
    <path d="M 92.290909 369.36 
L 93.104172 369.208497 
L 93.917435 369.056994 
L 94.730698 368.905491 
L 95.543961 368.753988 
L 96.357224 368.602485 
L 97.170486 368.450982 
L 97.983749 368.299479 
L 98.797012 368.147976 
L 99.610275 367.996473 
L 100.423538 367.84497 
L 101.236801 367.693467 
L 102.050064 367.541964 
L 102.863327 367.390461 
L 103.67659 367.238958 
L 104.489852 367.087455 
L 105.303115 366.935952 
L 106.116378 366.784449 
L 106.929641 366.632946 
L 107.742904 366.481443 
L 108.556167 366.32994 
L 109.36943 366.178437 
L 110.182693 366.026934 
L 110.995956 365.875431 
L 111.809218 365.723928 
L 112.622481 365.572425 
L 113.435744 365.420922 
L 114.249007 365.269419 
L 115.06227 365.117916 
L 115.875533 364.966413 
L 116.688796 364.81491 
L 117.502059 364.663407 
L 118.315322 364.511904 
L 119.128584 364.360401 
L 119.941847 364.208898 
L 120.75511 364.057395 
L 121.568373 363.905892 
L 122.381636 363.754389 
L 123.194899 363.602886 
L 124.008162 363.451383 
L 124.821425 363.29988 
L 125.634688 363.148377 
L 126.44795 362.996874 
L 127.261213 362.845371 
L 128.074476 362.693868 
L 128.887739 362.542365 
L 129.701002 362.390862 
L 130.514265 362.239359 
L 131.327528 362.087856 
L 132.140791 361.936353 
L 132.954054 361.78485 
L 133.767316 361.633347 
L 134.580579 361.481844 
L 135.393842 361.330341 
L 136.207105 361.178838 
L 137.020368 361.027335 
L 137.833631 360.875832 
L 138.646894 360.724329 
L 139.460157 360.572826 
L 140.27342 360.421323 
L 141.086682 360.26982 
L 141.899945 360.118317 
L 142.713208 359.966814 
L 143.526471 359.815311 
L 144.339734 359.663808 
L 145.152997 359.512305 
L 145.96626 359.360802 
L 146.779523 359.209299 
L 147.592786 359.057796 
L 148.406048 358.906293 
L 149.219311 358.75479 
L 150.032574 358.603287 
L 150.845837 358.451784 
L 151.6591 358.300281 
L 152.472363 358.148778 
L 153.285626 357.997275 
L 154.098889 357.845772 
L 154.912152 357.694269 
L 155.725414 357.542766 
L 156.538677 357.391263 
L 157.35194 357.23976 
L 158.165203 357.088257 
L 158.978466 356.936754 
L 159.791729 356.785251 
L 160.604992 356.633747 
L 161.418255 356.482244 
L 162.231518 356.330741 
L 163.04478 356.179238 
L 163.858043 356.027735 
L 164.671306 355.876232 
L 165.484569 355.724729 
L 166.297832 355.573226 
L 167.111095 355.421723 
L 167.924358 355.27022 
L 168.737621 355.118717 
L 169.550884 354.967214 
L 170.364146 354.815711 
L 171.177409 354.664208 
L 171.990672 354.512705 
L 172.803935 354.361202 
L 173.617198 354.209699 
L 174.430461 354.058196 
L 175.243724 353.906693 
L 176.056987 353.75519 
L 176.87025 353.603687 
L 177.683512 353.452184 
L 178.496775 353.300681 
L 179.310038 353.149178 
L 180.123301 352.997675 
L 180.936564 352.846172 
L 181.749827 352.694669 
L 182.56309 352.543166 
L 183.376353 352.391663 
L 184.189616 352.24016 
L 185.002878 352.088657 
L 185.816141 351.937154 
L 186.629404 351.785651 
L 187.442667 351.634148 
L 188.25593 351.482645 
L 189.069193 351.331142 
L 189.882456 351.179639 
L 190.695719 351.028136 
L 191.508982 350.876633 
L 192.322244 350.72513 
L 193.135507 350.573627 
" clip-path="url(#pf04d96d206)" style="fill: none; stroke: #008000; stroke-width: 1.5; stroke-linecap: square"/>
   </g>
   <g id="line2d_38">
    <path d="M 193.94877 350.421972 
L 194.762033 350.266826 
L 195.575296 350.106822 
L 196.388559 349.94196 
L 197.201822 349.77224 
L 198.015085 349.597662 
L 198.828348 349.418227 
L 199.64161 349.233934 
L 200.454873 349.044783 
L 201.268136 348.850774 
L 202.081399 348.651907 
L 202.894662 348.448183 
L 203.707925 348.2396 
L 204.521188 348.02616 
L 205.334451 347.807862 
L 206.147714 347.584707 
L 206.960976 347.356693 
L 207.774239 347.123822 
L 208.587502 346.886093 
L 209.400765 346.643506 
L 210.214028 346.396061 
L 211.027291 346.143758 
L 211.840554 345.886598 
L 212.653817 345.62458 
L 213.46708 345.357704 
L 214.280343 345.08597 
L 215.093605 344.809378 
L 215.906868 344.527929 
L 216.720131 344.241621 
L 217.533394 343.950456 
L 218.346657 343.654433 
L 219.15992 343.353553 
L 219.973183 343.047814 
L 220.786446 342.737218 
L 221.599709 342.421764 
L 222.412971 342.101452 
L 223.226234 341.776282 
L 224.039497 341.446254 
L 224.85276 341.111369 
L 225.666023 340.771626 
L 226.479286 340.427025 
L 227.292549 340.077566 
L 228.105812 339.723249 
L 228.919075 339.364075 
L 229.732337 339.000042 
L 230.5456 338.631152 
L 231.358863 338.257404 
L 232.172126 337.878799 
L 232.985389 337.495335 
L 233.798652 337.107014 
L 234.611915 336.713835 
L 235.425178 336.315798 
L 236.238441 335.912903 
L 237.051703 335.50515 
L 237.864966 335.09254 
L 238.678229 334.675072 
L 239.491492 334.252746 
L 240.304755 333.825562 
L 241.118018 333.39352 
L 241.931281 332.956621 
L 242.744544 332.514864 
L 243.557807 332.068249 
L 244.371069 331.616776 
L 245.184332 331.160445 
L 245.997595 330.699256 
L 246.810858 330.23321 
L 247.624121 329.762306 
L 248.437384 329.286544 
L 249.250647 328.805924 
L 250.06391 328.320447 
L 250.877173 327.830111 
L 251.690435 327.334918 
L 252.503698 326.834867 
L 253.316961 326.329958 
L 254.130224 325.820192 
L 254.943487 325.305567 
L 255.75675 324.786085 
L 256.570013 324.261745 
L 257.383276 323.732547 
L 258.196539 323.198491 
L 259.009801 322.659578 
L 259.823064 322.115807 
L 260.636327 321.567177 
L 261.44959 321.013691 
L 262.262853 320.455346 
L 263.076116 319.892143 
L 263.889379 319.324083 
L 264.702642 318.751165 
L 265.515905 318.173389 
L 266.329167 317.590755 
L 267.14243 317.003263 
L 267.955693 316.410914 
L 268.768956 315.813707 
L 269.582219 315.211642 
L 270.395482 314.604719 
L 271.208745 313.992938 
L 272.022008 313.3763 
L 272.835271 312.754803 
L 273.648533 312.128449 
L 274.461796 311.497237 
L 275.275059 310.861167 
L 276.088322 310.22024 
L 276.901585 309.574455 
L 277.714848 308.923811 
L 278.528111 308.26831 
L 279.341374 307.607952 
L 280.154637 306.942735 
L 280.967899 306.272661 
L 281.781162 305.597728 
L 282.594425 304.917938 
L 283.407688 304.23329 
L 284.220951 303.543785 
L 285.034214 302.849421 
L 285.847477 302.1502 
L 286.66074 301.446121 
L 287.474003 300.737184 
L 288.287265 300.023389 
L 289.100528 299.304737 
L 289.913791 298.581226 
L 290.727054 297.852858 
L 291.540317 297.119632 
L 292.35358 296.381549 
L 293.166843 295.638607 
L 293.980106 294.890808 
L 294.793369 294.13815 
" clip-path="url(#pf04d96d206)" style="fill: none; stroke: #008000; stroke-width: 1.5; stroke-linecap: square"/>
   </g>
   <g id="line2d_39">
    <path d="M 295.606631 293.381242 
L 296.419894 292.623727 
L 297.233157 291.866212 
L 298.04642 291.108697 
L 298.859683 290.351182 
L 299.672946 289.593667 
L 300.486209 288.836152 
L 301.299472 288.078637 
L 302.112735 287.321122 
L 302.925997 286.563607 
L 303.73926 285.806092 
L 304.552523 285.048577 
L 305.365786 284.291062 
L 306.179049 283.533547 
L 306.992312 282.776032 
L 307.805575 282.018517 
L 308.618838 281.261002 
L 309.432101 280.503487 
L 310.245363 279.745972 
L 311.058626 278.988457 
L 311.871889 278.230942 
L 312.685152 277.473427 
L 313.498415 276.715912 
L 314.311678 275.958397 
L 315.124941 275.200882 
L 315.938204 274.443367 
L 316.751467 273.685852 
L 317.564729 272.928337 
L 318.377992 272.170822 
L 319.191255 271.413307 
L 320.004518 270.655792 
L 320.817781 269.898277 
L 321.631044 269.140762 
L 322.444307 268.383246 
L 323.25757 267.625731 
L 324.070833 266.868216 
L 324.884095 266.110701 
L 325.697358 265.353186 
L 326.510621 264.595671 
L 327.323884 263.838156 
L 328.137147 263.080641 
L 328.95041 262.323126 
L 329.763673 261.565611 
L 330.576936 260.808096 
L 331.390199 260.050581 
L 332.203461 259.293066 
L 333.016724 258.535551 
L 333.829987 257.778036 
L 334.64325 257.020521 
L 335.456513 256.263006 
L 336.269776 255.505491 
L 337.083039 254.747976 
L 337.896302 253.990461 
L 338.709565 253.232946 
L 339.522827 252.475431 
L 340.33609 251.717916 
L 341.149353 250.960401 
L 341.962616 250.202886 
L 342.775879 249.445371 
L 343.589142 248.687856 
L 344.402405 247.930341 
L 345.215668 247.172826 
L 346.028931 246.415311 
L 346.842193 245.657796 
L 347.655456 244.900281 
L 348.468719 244.142766 
L 349.281982 243.385251 
L 350.095245 242.627735 
L 350.908508 241.87022 
L 351.721771 241.112705 
L 352.535034 240.35519 
L 353.348297 239.597675 
L 354.161559 238.84016 
L 354.974822 238.082645 
L 355.788085 237.32513 
L 356.601348 236.567615 
L 357.414611 235.8101 
L 358.227874 235.052585 
L 359.041137 234.29507 
L 359.8544 233.537555 
L 360.667663 232.78004 
L 361.480925 232.022525 
L 362.294188 231.26501 
L 363.107451 230.507495 
L 363.920714 229.74998 
L 364.733977 228.992465 
L 365.54724 228.23495 
L 366.360503 227.477435 
L 367.173766 226.71992 
L 367.987029 225.962405 
L 368.800291 225.20489 
L 369.613554 224.447375 
L 370.426817 223.68986 
L 371.24008 222.932345 
L 372.053343 222.17483 
L 372.866606 221.417315 
L 373.679869 220.6598 
L 374.493132 219.902285 
L 375.306395 219.14477 
L 376.119657 218.387255 
L 376.93292 217.629739 
L 377.746183 216.872224 
L 378.559446 216.114709 
L 379.372709 215.357194 
L 380.185972 214.599679 
L 380.999235 213.842164 
L 381.812498 213.084649 
L 382.625761 212.327134 
L 383.439024 211.569619 
L 384.252286 210.812104 
L 385.065549 210.054589 
L 385.878812 209.297074 
L 386.692075 208.539559 
L 387.505338 207.782044 
L 388.318601 207.024529 
L 389.131864 206.267014 
L 389.945127 205.509499 
L 390.75839 204.751984 
L 391.571652 203.994469 
L 392.384915 203.236954 
L 393.198178 202.479439 
L 394.011441 201.721924 
L 394.824704 200.964409 
L 395.637967 200.206894 
L 396.45123 199.449379 
" clip-path="url(#pf04d96d206)" style="fill: none; stroke: #008000; stroke-width: 1.5; stroke-linecap: square"/>
   </g>
   <g id="line2d_40">
    <path d="M 397.264493 198.690497 
L 398.077756 197.92691 
L 398.891018 197.158465 
L 399.704281 196.385162 
L 400.517544 195.607001 
L 401.330807 194.823983 
L 402.14407 194.036107 
L 402.957333 193.243372 
L 403.770596 192.44578 
L 404.583859 191.643331 
L 405.397122 190.836023 
L 406.210384 190.023858 
L 407.023647 189.206834 
L 407.83691 188.384953 
L 408.650173 187.558214 
L 409.463436 186.726618 
L 410.276699 185.890163 
L 411.089962 185.048851 
L 411.903225 184.202681 
L 412.716488 183.351653 
L 413.52975 182.495767 
L 414.343013 181.635024 
L 415.156276 180.769422 
L 415.969539 179.898963 
L 416.782802 179.023646 
L 417.596065 178.143472 
L 418.409328 177.258439 
L 419.222591 176.368549 
L 420.035854 175.4738 
L 420.849116 174.574194 
L 421.662379 173.66973 
L 422.475642 172.760409 
L 423.288905 171.846229 
L 424.102168 170.927192 
L 424.915431 170.003297 
L 425.728694 169.074544 
L 426.541957 168.140933 
L 427.35522 167.202465 
L 428.168482 166.259139 
L 428.981745 165.310954 
L 429.795008 164.357912 
L 430.608271 163.400013 
L 431.421534 162.437255 
L 432.234797 161.46964 
L 433.04806 160.497167 
L 433.861323 159.519836 
L 434.674586 158.537647 
L 435.487848 157.5506 
L 436.301111 156.558696 
L 437.114374 155.561933 
L 437.927637 154.560313 
L 438.7409 153.553835 
L 439.554163 152.5425 
L 440.367426 151.526306 
L 441.180689 150.505255 
L 441.993952 149.479346 
L 442.807214 148.448579 
L 443.620477 147.412954 
L 444.43374 146.372471 
L 445.247003 145.327131 
L 446.060266 144.276933 
L 446.873529 143.221877 
L 447.686792 142.161963 
L 448.500055 141.097191 
L 449.313318 140.027562 
L 450.12658 138.953075 
L 450.939843 137.87373 
L 451.753106 136.789527 
L 452.566369 135.700466 
L 453.379632 134.606548 
L 454.192895 133.507771 
L 455.006158 132.404137 
L 455.819421 131.295645 
L 456.632684 130.182295 
L 457.445946 129.064088 
L 458.259209 127.941023 
L 459.072472 126.813099 
L 459.885735 125.680318 
L 460.698998 124.54268 
L 461.512261 123.400183 
L 462.325524 122.252829 
L 463.138787 121.100616 
L 463.95205 119.943546 
L 464.765312 118.781618 
L 465.578575 117.614833 
L 466.391838 116.443189 
L 467.205101 115.266688 
L 468.018364 114.085329 
L 468.831627 112.899112 
L 469.64489 111.708037 
L 470.458153 110.512105 
L 471.271416 109.311314 
L 472.084678 108.105666 
L 472.897941 106.89516 
L 473.711204 105.679796 
L 474.524467 104.459575 
L 475.33773 103.234495 
L 476.150993 102.004558 
L 476.964256 100.769763 
L 477.777519 99.53011 
L 478.590782 98.285599 
L 479.404044 97.036231 
L 480.217307 95.782005 
L 481.03057 94.522921 
L 481.843833 93.258979 
L 482.657096 91.990179 
L 483.470359 90.716521 
L 484.283622 89.438006 
L 485.096885 88.154633 
L 485.910148 86.866402 
L 486.72341 85.573313 
L 487.536673 84.275367 
L 488.349936 82.972562 
L 489.163199 81.6649 
L 489.976462 80.35238 
L 490.789725 79.035002 
L 491.602988 77.712766 
L 492.416251 76.385673 
L 493.229514 75.053722 
L 494.042776 73.716913 
L 494.856039 72.375246 
L 495.669302 71.028721 
L 496.482565 69.677338 
L 497.295828 68.321098 
L 498.109091 66.96 
" clip-path="url(#pf04d96d206)" style="fill: none; stroke: #008000; stroke-width: 1.5; stroke-linecap: square"/>
   </g>
   <g id="patch_3">
    <path d="M 72 384.48 
L 72 51.84 
" style="fill: none; stroke: #000000; stroke-width: 0.8; stroke-linejoin: miter; stroke-linecap: square"/>
   </g>
   <g id="patch_4">
    <path d="M 518.4 384.48 
L 518.4 51.84 
" style="fill: none; stroke: #000000; stroke-width: 0.8; stroke-linejoin: miter; stroke-linecap: square"/>
   </g>
   <g id="patch_5">
    <path d="M 72 384.48 
L 518.4 384.48 
" style="fill: none; stroke: #000000; stroke-width: 0.8; stroke-linejoin: miter; stroke-linecap: square"/>
   </g>
   <g id="patch_6">
    <path d="M 72 51.84 
L 518.4 51.84 
" style="fill: none; stroke: #000000; stroke-width: 0.8; stroke-linejoin: miter; stroke-linecap: square"/>
   </g>
   <g id="text_21">
    <!-- Interpolación Spline Cuadratico -->
    <g transform="translate(200.982188 45.84) scale(0.12 -0.12)">
     <defs>
      <path id="DejaVuSans-49" d="M 628 4666 
L 1259 4666 
L 1259 0 
L 628 0 
L 628 4666 
z
" transform="scale(0.015625)"/>
      <path id="DejaVuSans-6e" d="M 3513 2113 
L 3513 0 
L 2938 0 
L 2938 2094 
Q 2938 2591 2744 2837 
Q 2550 3084 2163 3084 
Q 1697 3084 1428 2787 
Q 1159 2491 1159 1978 
L 1159 0 
L 581 0 
L 581 3500 
L 1159 3500 
L 1159 2956 
Q 1366 3272 1645 3428 
Q 1925 3584 2291 3584 
Q 2894 3584 3203 3211 
Q 3513 2838 3513 2113 
z
" transform="scale(0.015625)"/>
      <path id="DejaVuSans-74" d="M 1172 4494 
L 1172 3500 
L 2356 3500 
L 2356 3053 
L 1172 3053 
L 1172 1153 
Q 1172 725 1289 603 
Q 1406 481 1766 481 
L 2356 481 
L 2356 0 
L 1766 0 
Q 1100 0 847 248 
Q 594 497 594 1153 
L 594 3053 
L 172 3053 
L 172 3500 
L 594 3500 
L 594 4494 
L 1172 4494 
z
" transform="scale(0.015625)"/>
      <path id="DejaVuSans-65" d="M 3597 1894 
L 3597 1613 
L 953 1613 
Q 991 1019 1311 708 
Q 1631 397 2203 397 
Q 2534 397 2845 478 
Q 3156 559 3463 722 
L 3463 178 
Q 3153 47 2828 -22 
Q 2503 -91 2169 -91 
Q 1331 -91 842 396 
Q 353 884 353 1716 
Q 353 2575 817 3079 
Q 1281 3584 2069 3584 
Q 2775 3584 3186 3129 
Q 3597 2675 3597 1894 
z
M 3022 2063 
Q 3016 2534 2758 2815 
Q 2500 3097 2075 3097 
Q 1594 3097 1305 2825 
Q 1016 2553 972 2059 
L 3022 2063 
z
" transform="scale(0.015625)"/>
      <path id="DejaVuSans-72" d="M 2631 2963 
Q 2534 3019 2420 3045 
Q 2306 3072 2169 3072 
Q 1681 3072 1420 2755 
Q 1159 2438 1159 1844 
L 1159 0 
L 581 0 
L 581 3500 
L 1159 3500 
L 1159 2956 
Q 1341 3275 1631 3429 
Q 1922 3584 2338 3584 
Q 2397 3584 2469 3576 
Q 2541 3569 2628 3553 
L 2631 2963 
z
" transform="scale(0.015625)"/>
      <path id="DejaVuSans-70" d="M 1159 525 
L 1159 -1331 
L 581 -1331 
L 581 3500 
L 1159 3500 
L 1159 2969 
Q 1341 3281 1617 3432 
Q 1894 3584 2278 3584 
Q 2916 3584 3314 3078 
Q 3713 2572 3713 1747 
Q 3713 922 3314 415 
Q 2916 -91 2278 -91 
Q 1894 -91 1617 61 
Q 1341 213 1159 525 
z
M 3116 1747 
Q 3116 2381 2855 2742 
Q 2594 3103 2138 3103 
Q 1681 3103 1420 2742 
Q 1159 2381 1159 1747 
Q 1159 1113 1420 752 
Q 1681 391 2138 391 
Q 2594 391 2855 752 
Q 3116 1113 3116 1747 
z
" transform="scale(0.015625)"/>
      <path id="DejaVuSans-6f" d="M 1959 3097 
Q 1497 3097 1228 2736 
Q 959 2375 959 1747 
Q 959 1119 1226 758 
Q 1494 397 1959 397 
Q 2419 397 2687 759 
Q 2956 1122 2956 1747 
Q 2956 2369 2687 2733 
Q 2419 3097 1959 3097 
z
M 1959 3584 
Q 2709 3584 3137 3096 
Q 3566 2609 3566 1747 
Q 3566 888 3137 398 
Q 2709 -91 1959 -91 
Q 1206 -91 779 398 
Q 353 888 353 1747 
Q 353 2609 779 3096 
Q 1206 3584 1959 3584 
z
" transform="scale(0.015625)"/>
      <path id="DejaVuSans-6c" d="M 603 4863 
L 1178 4863 
L 1178 0 
L 603 0 
L 603 4863 
z
" transform="scale(0.015625)"/>
      <path id="DejaVuSans-61" d="M 2194 1759 
Q 1497 1759 1228 1600 
Q 959 1441 959 1056 
Q 959 750 1161 570 
Q 1363 391 1709 391 
Q 2188 391 2477 730 
Q 2766 1069 2766 1631 
L 2766 1759 
L 2194 1759 
z
M 3341 1997 
L 3341 0 
L 2766 0 
L 2766 531 
Q 2569 213 2275 61 
Q 1981 -91 1556 -91 
Q 1019 -91 701 211 
Q 384 513 384 1019 
Q 384 1609 779 1909 
Q 1175 2209 1959 2209 
L 2766 2209 
L 2766 2266 
Q 2766 2663 2505 2880 
Q 2244 3097 1772 3097 
Q 1472 3097 1187 3025 
Q 903 2953 641 2809 
L 641 3341 
Q 956 3463 1253 3523 
Q 1550 3584 1831 3584 
Q 2591 3584 2966 3190 
Q 3341 2797 3341 1997 
z
" transform="scale(0.015625)"/>
      <path id="DejaVuSans-63" d="M 3122 3366 
L 3122 2828 
Q 2878 2963 2633 3030 
Q 2388 3097 2138 3097 
Q 1578 3097 1268 2742 
Q 959 2388 959 1747 
Q 959 1106 1268 751 
Q 1578 397 2138 397 
Q 2388 397 2633 464 
Q 2878 531 3122 666 
L 3122 134 
Q 2881 22 2623 -34 
Q 2366 -91 2075 -91 
Q 1284 -91 818 406 
Q 353 903 353 1747 
Q 353 2603 823 3093 
Q 1294 3584 2113 3584 
Q 2378 3584 2631 3529 
Q 2884 3475 3122 3366 
z
" transform="scale(0.015625)"/>
      <path id="DejaVuSans-69" d="M 603 3500 
L 1178 3500 
L 1178 0 
L 603 0 
L 603 3500 
z
M 603 4863 
L 1178 4863 
L 1178 4134 
L 603 4134 
L 603 4863 
z
" transform="scale(0.015625)"/>
      <path id="DejaVuSans-f3" d="M 1959 3097 
Q 1497 3097 1228 2736 
Q 959 2375 959 1747 
Q 959 1119 1226 758 
Q 1494 397 1959 397 
Q 2419 397 2687 759 
Q 2956 1122 2956 1747 
Q 2956 2369 2687 2733 
Q 2419 3097 1959 3097 
z
M 1959 3584 
Q 2709 3584 3137 3096 
Q 3566 2609 3566 1747 
Q 3566 888 3137 398 
Q 2709 -91 1959 -91 
Q 1206 -91 779 398 
Q 353 888 353 1747 
Q 353 2609 779 3096 
Q 1206 3584 1959 3584 
z
M 2394 5119 
L 3016 5119 
L 1998 3944 
L 1519 3944 
L 2394 5119 
z
" transform="scale(0.015625)"/>
      <path id="DejaVuSans-20" transform="scale(0.015625)"/>
      <path id="DejaVuSans-53" d="M 3425 4513 
L 3425 3897 
Q 3066 4069 2747 4153 
Q 2428 4238 2131 4238 
Q 1616 4238 1336 4038 
Q 1056 3838 1056 3469 
Q 1056 3159 1242 3001 
Q 1428 2844 1947 2747 
L 2328 2669 
Q 3034 2534 3370 2195 
Q 3706 1856 3706 1288 
Q 3706 609 3251 259 
Q 2797 -91 1919 -91 
Q 1588 -91 1214 -16 
Q 841 59 441 206 
L 441 856 
Q 825 641 1194 531 
Q 1563 422 1919 422 
Q 2459 422 2753 634 
Q 3047 847 3047 1241 
Q 3047 1584 2836 1778 
Q 2625 1972 2144 2069 
L 1759 2144 
Q 1053 2284 737 2584 
Q 422 2884 422 3419 
Q 422 4038 858 4394 
Q 1294 4750 2059 4750 
Q 2388 4750 2728 4690 
Q 3069 4631 3425 4513 
z
" transform="scale(0.015625)"/>
      <path id="DejaVuSans-43" d="M 4122 4306 
L 4122 3641 
Q 3803 3938 3442 4084 
Q 3081 4231 2675 4231 
Q 1875 4231 1450 3742 
Q 1025 3253 1025 2328 
Q 1025 1406 1450 917 
Q 1875 428 2675 428 
Q 3081 428 3442 575 
Q 3803 722 4122 1019 
L 4122 359 
Q 3791 134 3420 21 
Q 3050 -91 2638 -91 
Q 1578 -91 968 557 
Q 359 1206 359 2328 
Q 359 3453 968 4101 
Q 1578 4750 2638 4750 
Q 3056 4750 3426 4639 
Q 3797 4528 4122 4306 
z
" transform="scale(0.015625)"/>
      <path id="DejaVuSans-75" d="M 544 1381 
L 544 3500 
L 1119 3500 
L 1119 1403 
Q 1119 906 1312 657 
Q 1506 409 1894 409 
Q 2359 409 2629 706 
Q 2900 1003 2900 1516 
L 2900 3500 
L 3475 3500 
L 3475 0 
L 2900 0 
L 2900 538 
Q 2691 219 2414 64 
Q 2138 -91 1772 -91 
Q 1169 -91 856 284 
Q 544 659 544 1381 
z
M 1991 3584 
L 1991 3584 
z
" transform="scale(0.015625)"/>
      <path id="DejaVuSans-64" d="M 2906 2969 
L 2906 4863 
L 3481 4863 
L 3481 0 
L 2906 0 
L 2906 525 
Q 2725 213 2448 61 
Q 2172 -91 1784 -91 
Q 1150 -91 751 415 
Q 353 922 353 1747 
Q 353 2572 751 3078 
Q 1150 3584 1784 3584 
Q 2172 3584 2448 3432 
Q 2725 3281 2906 2969 
z
M 947 1747 
Q 947 1113 1208 752 
Q 1469 391 1925 391 
Q 2381 391 2643 752 
Q 2906 1113 2906 1747 
Q 2906 2381 2643 2742 
Q 2381 3103 1925 3103 
Q 1469 3103 1208 2742 
Q 947 2381 947 1747 
z
" transform="scale(0.015625)"/>
     </defs>
     <use xlink:href="#DejaVuSans-49"/>
     <use xlink:href="#DejaVuSans-6e" x="29.492188"/>
     <use xlink:href="#DejaVuSans-74" x="92.871094"/>
     <use xlink:href="#DejaVuSans-65" x="132.080078"/>
     <use xlink:href="#DejaVuSans-72" x="193.603516"/>
     <use xlink:href="#DejaVuSans-70" x="234.716797"/>
     <use xlink:href="#DejaVuSans-6f" x="298.193359"/>
     <use xlink:href="#DejaVuSans-6c" x="359.375"/>
     <use xlink:href="#DejaVuSans-61" x="387.158203"/>
     <use xlink:href="#DejaVuSans-63" x="448.4375"/>
     <use xlink:href="#DejaVuSans-69" x="503.417969"/>
     <use xlink:href="#DejaVuSans-f3" x="531.201172"/>
     <use xlink:href="#DejaVuSans-6e" x="592.382812"/>
     <use xlink:href="#DejaVuSans-20" x="655.761719"/>
     <use xlink:href="#DejaVuSans-53" x="687.548828"/>
     <use xlink:href="#DejaVuSans-70" x="751.025391"/>
     <use xlink:href="#DejaVuSans-6c" x="814.501953"/>
     <use xlink:href="#DejaVuSans-69" x="842.285156"/>
     <use xlink:href="#DejaVuSans-6e" x="870.068359"/>
     <use xlink:href="#DejaVuSans-65" x="933.447266"/>
     <use xlink:href="#DejaVuSans-20" x="994.970703"/>
     <use xlink:href="#DejaVuSans-43" x="1026.757812"/>
     <use xlink:href="#DejaVuSans-75" x="1096.582031"/>
     <use xlink:href="#DejaVuSans-61" x="1159.960938"/>
     <use xlink:href="#DejaVuSans-64" x="1221.240234"/>
     <use xlink:href="#DejaVuSans-72" x="1284.716797"/>
     <use xlink:href="#DejaVuSans-61" x="1325.830078"/>
     <use xlink:href="#DejaVuSans-74" x="1387.109375"/>
     <use xlink:href="#DejaVuSans-69" x="1426.318359"/>
     <use xlink:href="#DejaVuSans-63" x="1454.101562"/>
     <use xlink:href="#DejaVuSans-6f" x="1509.082031"/>
    </g>
   </g>
   <g id="legend_1">
    <g id="patch_7">
     <path d="M 79 89.59625 
L 199.273438 89.59625 
Q 201.273438 89.59625 201.273438 87.59625 
L 201.273438 58.84 
Q 201.273438 56.84 199.273438 56.84 
L 79 56.84 
Q 77 56.84 77 58.84 
L 77 87.59625 
Q 77 89.59625 79 89.59625 
z
" style="fill: #ffffff; opacity: 0.8; stroke: #cccccc; stroke-linejoin: miter"/>
    </g>
    <g id="line2d_41">
     <path d="M 81 65.338437 
L 91 65.338437 
L 101 65.338437 
" style="fill: none; stroke: #008000; stroke-width: 1.5; stroke-linecap: square"/>
    </g>
    <g id="text_22">
     <!-- Spline Cuadrático -->
     <g transform="translate(109 68.838437) scale(0.1 -0.1)">
      <defs>
       <path id="DejaVuSans-e1" d="M 2194 1759 
Q 1497 1759 1228 1600 
Q 959 1441 959 1056 
Q 959 750 1161 570 
Q 1363 391 1709 391 
Q 2188 391 2477 730 
Q 2766 1069 2766 1631 
L 2766 1759 
L 2194 1759 
z
M 3341 1997 
L 3341 0 
L 2766 0 
L 2766 531 
Q 2569 213 2275 61 
Q 1981 -91 1556 -91 
Q 1019 -91 701 211 
Q 384 513 384 1019 
Q 384 1609 779 1909 
Q 1175 2209 1959 2209 
L 2766 2209 
L 2766 2266 
Q 2766 2663 2505 2880 
Q 2244 3097 1772 3097 
Q 1472 3097 1187 3025 
Q 903 2953 641 2809 
L 641 3341 
Q 956 3463 1253 3523 
Q 1550 3584 1831 3584 
Q 2591 3584 2966 3190 
Q 3341 2797 3341 1997 
z
M 2290 5119 
L 2912 5119 
L 1894 3944 
L 1415 3944 
L 2290 5119 
z
" transform="scale(0.015625)"/>
      </defs>
      <use xlink:href="#DejaVuSans-53"/>
      <use xlink:href="#DejaVuSans-70" x="63.476562"/>
      <use xlink:href="#DejaVuSans-6c" x="126.953125"/>
      <use xlink:href="#DejaVuSans-69" x="154.736328"/>
      <use xlink:href="#DejaVuSans-6e" x="182.519531"/>
      <use xlink:href="#DejaVuSans-65" x="245.898438"/>
      <use xlink:href="#DejaVuSans-20" x="307.421875"/>
      <use xlink:href="#DejaVuSans-43" x="339.208984"/>
      <use xlink:href="#DejaVuSans-75" x="409.033203"/>
      <use xlink:href="#DejaVuSans-61" x="472.412109"/>
      <use xlink:href="#DejaVuSans-64" x="533.691406"/>
      <use xlink:href="#DejaVuSans-72" x="597.167969"/>
      <use xlink:href="#DejaVuSans-e1" x="638.28125"/>
      <use xlink:href="#DejaVuSans-74" x="699.560547"/>
      <use xlink:href="#DejaVuSans-69" x="738.769531"/>
      <use xlink:href="#DejaVuSans-63" x="766.552734"/>
      <use xlink:href="#DejaVuSans-6f" x="821.533203"/>
     </g>
    </g>
    <g id="PathCollection_2">
     <g>
      <use xlink:href="#m3104d1ad47" x="91" y="80.891563" style="fill: #ff0000; stroke: #ff0000"/>
     </g>
    </g>
    <g id="text_23">
     <!-- Puntos dados -->
     <g transform="translate(109 83.516563) scale(0.1 -0.1)">
      <defs>
       <path id="DejaVuSans-50" d="M 1259 4147 
L 1259 2394 
L 2053 2394 
Q 2494 2394 2734 2622 
Q 2975 2850 2975 3272 
Q 2975 3691 2734 3919 
Q 2494 4147 2053 4147 
L 1259 4147 
z
M 628 4666 
L 2053 4666 
Q 2838 4666 3239 4311 
Q 3641 3956 3641 3272 
Q 3641 2581 3239 2228 
Q 2838 1875 2053 1875 
L 1259 1875 
L 1259 0 
L 628 0 
L 628 4666 
z
" transform="scale(0.015625)"/>
       <path id="DejaVuSans-73" d="M 2834 3397 
L 2834 2853 
Q 2591 2978 2328 3040 
Q 2066 3103 1784 3103 
Q 1356 3103 1142 2972 
Q 928 2841 928 2578 
Q 928 2378 1081 2264 
Q 1234 2150 1697 2047 
L 1894 2003 
Q 2506 1872 2764 1633 
Q 3022 1394 3022 966 
Q 3022 478 2636 193 
Q 2250 -91 1575 -91 
Q 1294 -91 989 -36 
Q 684 19 347 128 
L 347 722 
Q 666 556 975 473 
Q 1284 391 1588 391 
Q 1994 391 2212 530 
Q 2431 669 2431 922 
Q 2431 1156 2273 1281 
Q 2116 1406 1581 1522 
L 1381 1569 
Q 847 1681 609 1914 
Q 372 2147 372 2553 
Q 372 3047 722 3315 
Q 1072 3584 1716 3584 
Q 2034 3584 2315 3537 
Q 2597 3491 2834 3397 
z
" transform="scale(0.015625)"/>
      </defs>
      <use xlink:href="#DejaVuSans-50"/>
      <use xlink:href="#DejaVuSans-75" x="58.552734"/>
      <use xlink:href="#DejaVuSans-6e" x="121.931641"/>
      <use xlink:href="#DejaVuSans-74" x="185.310547"/>
      <use xlink:href="#DejaVuSans-6f" x="224.519531"/>
      <use xlink:href="#DejaVuSans-73" x="285.701172"/>
      <use xlink:href="#DejaVuSans-20" x="337.800781"/>
      <use xlink:href="#DejaVuSans-64" x="369.587891"/>
      <use xlink:href="#DejaVuSans-61" x="433.064453"/>
      <use xlink:href="#DejaVuSans-64" x="494.34375"/>
      <use xlink:href="#DejaVuSans-6f" x="557.820312"/>
      <use xlink:href="#DejaVuSans-73" x="619.001953"/>
     </g>
    </g>
   </g>
  </g>
 </g>
 <defs>
  <clipPath id="pf04d96d206">
   <rect x="72" y="51.84" width="446.4" height="332.64"/>
  </clipPath>
 </defs>
</svg>
