<?xml version="1.0" encoding="utf-8" standalone="no"?>
<!DOCTYPE svg PUBLIC "-//W3C//DTD SVG 1.1//EN"
  "http://www.w3.org/Graphics/SVG/1.1/DTD/svg11.dtd">
<svg xmlns:xlink="http://www.w3.org/1999/xlink" width="576pt" height="432pt" viewBox="0 0 576 432" xmlns="http://www.w3.org/2000/svg" version="1.1">
 <metadata>
  <rdf:RDF xmlns:dc="http://purl.org/dc/elements/1.1/" xmlns:cc="http://creativecommons.org/ns#" xmlns:rdf="http://www.w3.org/1999/02/22-rdf-syntax-ns#">
   <cc:Work>
    <dc:type rdf:resource="http://purl.org/dc/dcmitype/StillImage"/>
    <dc:date>2024-11-19T21:20:22.762968</dc:date>
    <dc:format>image/svg+xml</dc:format>
    <dc:creator>
     <cc:Agent>
      <dc:title>Matplotlib v3.9.2, https://matplotlib.org/</dc:title>
     </cc:Agent>
    </dc:creator>
   </cc:Work>
  </rdf:RDF>
 </metadata>
 <defs>
  <style type="text/css">*{stroke-linejoin: round; stroke-linecap: butt}</style>
 </defs>
 <g id="figure_1">
  <g id="patch_1">
   <path d="M 0 432 
L 576 432 
L 576 0 
L 0 0 
z
" style="fill: #ffffff"/>
  </g>
  <g id="axes_1">
   <g id="patch_2">
    <path d="M 72 384.48 
L 518.4 384.48 
L 518.4 51.84 
L 72 51.84 
z
" style="fill: #ffffff"/>
   </g>
   <g id="PathCollection_1">
    <defs>
     <path id="m45c81dbe15" d="M 0 3 
C 0.795609 3 1.55874 2.683901 2.12132 2.12132 
C 2.683901 1.55874 3 0.795609 3 0 
C 3 -0.795609 2.683901 -1.55874 2.12132 -2.12132 
C 1.55874 -2.683901 0.795609 -3 0 -3 
C -0.795609 -3 -1.55874 -2.683901 -2.12132 -2.12132 
C -2.683901 -1.55874 -3 -0.795609 -3 0 
C -3 0.795609 -2.683901 1.55874 -2.12132 2.12132 
C -1.55874 2.683901 -0.795609 3 0 3 
z
" style="stroke: #ff0000"/>
    </defs>
    <g clip-path="url(#p2a5d5219f3)">
     <use xlink:href="#m45c81dbe15" x="92.290909" y="223.86949" style="fill: #ff0000; stroke: #ff0000"/>
     <use xlink:href="#m45c81dbe15" x="193.745455" y="238.579754" style="fill: #ff0000; stroke: #ff0000"/>
     <use xlink:href="#m45c81dbe15" x="295.2" y="184.642117" style="fill: #ff0000; stroke: #ff0000"/>
     <use xlink:href="#m45c81dbe15" x="396.654545" y="312.131078" style="fill: #ff0000; stroke: #ff0000"/>
     <use xlink:href="#m45c81dbe15" x="498.109091" y="66.96" style="fill: #ff0000; stroke: #ff0000"/>
    </g>
   </g>
   <g id="matplotlib.axis_1">
    <g id="xtick_1">
     <g id="line2d_1">
      <path d="M 92.290909 384.48 
L 92.290909 51.84 
" clip-path="url(#p2a5d5219f3)" style="fill: none; stroke: #b0b0b0; stroke-width: 0.8; stroke-linecap: square"/>
     </g>
     <g id="line2d_2">
      <defs>
       <path id="m4ec03e846e" d="M 0 0 
L 0 3.5 
" style="stroke: #000000; stroke-width: 0.8"/>
      </defs>
      <g>
       <use xlink:href="#m4ec03e846e" x="92.290909" y="384.48" style="stroke: #000000; stroke-width: 0.8"/>
      </g>
     </g>
     <g id="text_1">
      <!-- 0.0 -->
      <g transform="translate(84.339347 399.078438) scale(0.1 -0.1)">
       <defs>
        <path id="DejaVuSans-30" d="M 2034 4250 
Q 1547 4250 1301 3770 
Q 1056 3291 1056 2328 
Q 1056 1369 1301 889 
Q 1547 409 2034 409 
Q 2525 409 2770 889 
Q 3016 1369 3016 2328 
Q 3016 3291 2770 3770 
Q 2525 4250 2034 4250 
z
M 2034 4750 
Q 2819 4750 3233 4129 
Q 3647 3509 3647 2328 
Q 3647 1150 3233 529 
Q 2819 -91 2034 -91 
Q 1250 -91 836 529 
Q 422 1150 422 2328 
Q 422 3509 836 4129 
Q 1250 4750 2034 4750 
z
" transform="scale(0.015625)"/>
        <path id="DejaVuSans-2e" d="M 684 794 
L 1344 794 
L 1344 0 
L 684 0 
L 684 794 
z
" transform="scale(0.015625)"/>
       </defs>
       <use xlink:href="#DejaVuSans-30"/>
       <use xlink:href="#DejaVuSans-2e" x="63.623047"/>
       <use xlink:href="#DejaVuSans-30" x="95.410156"/>
      </g>
     </g>
    </g>
    <g id="xtick_2">
     <g id="line2d_3">
      <path d="M 143.018182 384.48 
L 143.018182 51.84 
" clip-path="url(#p2a5d5219f3)" style="fill: none; stroke: #b0b0b0; stroke-width: 0.8; stroke-linecap: square"/>
     </g>
     <g id="line2d_4">
      <g>
       <use xlink:href="#m4ec03e846e" x="143.018182" y="384.48" style="stroke: #000000; stroke-width: 0.8"/>
      </g>
     </g>
     <g id="text_2">
      <!-- 0.5 -->
      <g transform="translate(135.066619 399.078438) scale(0.1 -0.1)">
       <defs>
        <path id="DejaVuSans-35" d="M 691 4666 
L 3169 4666 
L 3169 4134 
L 1269 4134 
L 1269 2991 
Q 1406 3038 1543 3061 
Q 1681 3084 1819 3084 
Q 2600 3084 3056 2656 
Q 3513 2228 3513 1497 
Q 3513 744 3044 326 
Q 2575 -91 1722 -91 
Q 1428 -91 1123 -41 
Q 819 9 494 109 
L 494 744 
Q 775 591 1075 516 
Q 1375 441 1709 441 
Q 2250 441 2565 725 
Q 2881 1009 2881 1497 
Q 2881 1984 2565 2268 
Q 2250 2553 1709 2553 
Q 1456 2553 1204 2497 
Q 953 2441 691 2322 
L 691 4666 
z
" transform="scale(0.015625)"/>
       </defs>
       <use xlink:href="#DejaVuSans-30"/>
       <use xlink:href="#DejaVuSans-2e" x="63.623047"/>
       <use xlink:href="#DejaVuSans-35" x="95.410156"/>
      </g>
     </g>
    </g>
    <g id="xtick_3">
     <g id="line2d_5">
      <path d="M 193.745455 384.48 
L 193.745455 51.84 
" clip-path="url(#p2a5d5219f3)" style="fill: none; stroke: #b0b0b0; stroke-width: 0.8; stroke-linecap: square"/>
     </g>
     <g id="line2d_6">
      <g>
       <use xlink:href="#m4ec03e846e" x="193.745455" y="384.48" style="stroke: #000000; stroke-width: 0.8"/>
      </g>
     </g>
     <g id="text_3">
      <!-- 1.0 -->
      <g transform="translate(185.793892 399.078438) scale(0.1 -0.1)">
       <defs>
        <path id="DejaVuSans-31" d="M 794 531 
L 1825 531 
L 1825 4091 
L 703 3866 
L 703 4441 
L 1819 4666 
L 2450 4666 
L 2450 531 
L 3481 531 
L 3481 0 
L 794 0 
L 794 531 
z
" transform="scale(0.015625)"/>
       </defs>
       <use xlink:href="#DejaVuSans-31"/>
       <use xlink:href="#DejaVuSans-2e" x="63.623047"/>
       <use xlink:href="#DejaVuSans-30" x="95.410156"/>
      </g>
     </g>
    </g>
    <g id="xtick_4">
     <g id="line2d_7">
      <path d="M 244.472727 384.48 
L 244.472727 51.84 
" clip-path="url(#p2a5d5219f3)" style="fill: none; stroke: #b0b0b0; stroke-width: 0.8; stroke-linecap: square"/>
     </g>
     <g id="line2d_8">
      <g>
       <use xlink:href="#m4ec03e846e" x="244.472727" y="384.48" style="stroke: #000000; stroke-width: 0.8"/>
      </g>
     </g>
     <g id="text_4">
      <!-- 1.5 -->
      <g transform="translate(236.521165 399.078438) scale(0.1 -0.1)">
       <use xlink:href="#DejaVuSans-31"/>
       <use xlink:href="#DejaVuSans-2e" x="63.623047"/>
       <use xlink:href="#DejaVuSans-35" x="95.410156"/>
      </g>
     </g>
    </g>
    <g id="xtick_5">
     <g id="line2d_9">
      <path d="M 295.2 384.48 
L 295.2 51.84 
" clip-path="url(#p2a5d5219f3)" style="fill: none; stroke: #b0b0b0; stroke-width: 0.8; stroke-linecap: square"/>
     </g>
     <g id="line2d_10">
      <g>
       <use xlink:href="#m4ec03e846e" x="295.2" y="384.48" style="stroke: #000000; stroke-width: 0.8"/>
      </g>
     </g>
     <g id="text_5">
      <!-- 2.0 -->
      <g transform="translate(287.248437 399.078438) scale(0.1 -0.1)">
       <defs>
        <path id="DejaVuSans-32" d="M 1228 531 
L 3431 531 
L 3431 0 
L 469 0 
L 469 531 
Q 828 903 1448 1529 
Q 2069 2156 2228 2338 
Q 2531 2678 2651 2914 
Q 2772 3150 2772 3378 
Q 2772 3750 2511 3984 
Q 2250 4219 1831 4219 
Q 1534 4219 1204 4116 
Q 875 4013 500 3803 
L 500 4441 
Q 881 4594 1212 4672 
Q 1544 4750 1819 4750 
Q 2544 4750 2975 4387 
Q 3406 4025 3406 3419 
Q 3406 3131 3298 2873 
Q 3191 2616 2906 2266 
Q 2828 2175 2409 1742 
Q 1991 1309 1228 531 
z
" transform="scale(0.015625)"/>
       </defs>
       <use xlink:href="#DejaVuSans-32"/>
       <use xlink:href="#DejaVuSans-2e" x="63.623047"/>
       <use xlink:href="#DejaVuSans-30" x="95.410156"/>
      </g>
     </g>
    </g>
    <g id="xtick_6">
     <g id="line2d_11">
      <path d="M 345.927273 384.48 
L 345.927273 51.84 
" clip-path="url(#p2a5d5219f3)" style="fill: none; stroke: #b0b0b0; stroke-width: 0.8; stroke-linecap: square"/>
     </g>
     <g id="line2d_12">
      <g>
       <use xlink:href="#m4ec03e846e" x="345.927273" y="384.48" style="stroke: #000000; stroke-width: 0.8"/>
      </g>
     </g>
     <g id="text_6">
      <!-- 2.5 -->
      <g transform="translate(337.97571 399.078438) scale(0.1 -0.1)">
       <use xlink:href="#DejaVuSans-32"/>
       <use xlink:href="#DejaVuSans-2e" x="63.623047"/>
       <use xlink:href="#DejaVuSans-35" x="95.410156"/>
      </g>
     </g>
    </g>
    <g id="xtick_7">
     <g id="line2d_13">
      <path d="M 396.654545 384.48 
L 396.654545 51.84 
" clip-path="url(#p2a5d5219f3)" style="fill: none; stroke: #b0b0b0; stroke-width: 0.8; stroke-linecap: square"/>
     </g>
     <g id="line2d_14">
      <g>
       <use xlink:href="#m4ec03e846e" x="396.654545" y="384.48" style="stroke: #000000; stroke-width: 0.8"/>
      </g>
     </g>
     <g id="text_7">
      <!-- 3.0 -->
      <g transform="translate(388.702983 399.078438) scale(0.1 -0.1)">
       <defs>
        <path id="DejaVuSans-33" d="M 2597 2516 
Q 3050 2419 3304 2112 
Q 3559 1806 3559 1356 
Q 3559 666 3084 287 
Q 2609 -91 1734 -91 
Q 1441 -91 1130 -33 
Q 819 25 488 141 
L 488 750 
Q 750 597 1062 519 
Q 1375 441 1716 441 
Q 2309 441 2620 675 
Q 2931 909 2931 1356 
Q 2931 1769 2642 2001 
Q 2353 2234 1838 2234 
L 1294 2234 
L 1294 2753 
L 1863 2753 
Q 2328 2753 2575 2939 
Q 2822 3125 2822 3475 
Q 2822 3834 2567 4026 
Q 2313 4219 1838 4219 
Q 1578 4219 1281 4162 
Q 984 4106 628 3988 
L 628 4550 
Q 988 4650 1302 4700 
Q 1616 4750 1894 4750 
Q 2613 4750 3031 4423 
Q 3450 4097 3450 3541 
Q 3450 3153 3228 2886 
Q 3006 2619 2597 2516 
z
" transform="scale(0.015625)"/>
       </defs>
       <use xlink:href="#DejaVuSans-33"/>
       <use xlink:href="#DejaVuSans-2e" x="63.623047"/>
       <use xlink:href="#DejaVuSans-30" x="95.410156"/>
      </g>
     </g>
    </g>
    <g id="xtick_8">
     <g id="line2d_15">
      <path d="M 447.381818 384.48 
L 447.381818 51.84 
" clip-path="url(#p2a5d5219f3)" style="fill: none; stroke: #b0b0b0; stroke-width: 0.8; stroke-linecap: square"/>
     </g>
     <g id="line2d_16">
      <g>
       <use xlink:href="#m4ec03e846e" x="447.381818" y="384.48" style="stroke: #000000; stroke-width: 0.8"/>
      </g>
     </g>
     <g id="text_8">
      <!-- 3.5 -->
      <g transform="translate(439.430256 399.078438) scale(0.1 -0.1)">
       <use xlink:href="#DejaVuSans-33"/>
       <use xlink:href="#DejaVuSans-2e" x="63.623047"/>
       <use xlink:href="#DejaVuSans-35" x="95.410156"/>
      </g>
     </g>
    </g>
    <g id="xtick_9">
     <g id="line2d_17">
      <path d="M 498.109091 384.48 
L 498.109091 51.84 
" clip-path="url(#p2a5d5219f3)" style="fill: none; stroke: #b0b0b0; stroke-width: 0.8; stroke-linecap: square"/>
     </g>
     <g id="line2d_18">
      <g>
       <use xlink:href="#m4ec03e846e" x="498.109091" y="384.48" style="stroke: #000000; stroke-width: 0.8"/>
      </g>
     </g>
     <g id="text_9">
      <!-- 4.0 -->
      <g transform="translate(490.157528 399.078438) scale(0.1 -0.1)">
       <defs>
        <path id="DejaVuSans-34" d="M 2419 4116 
L 825 1625 
L 2419 1625 
L 2419 4116 
z
M 2253 4666 
L 3047 4666 
L 3047 1625 
L 3713 1625 
L 3713 1100 
L 3047 1100 
L 3047 0 
L 2419 0 
L 2419 1100 
L 313 1100 
L 313 1709 
L 2253 4666 
z
" transform="scale(0.015625)"/>
       </defs>
       <use xlink:href="#DejaVuSans-34"/>
       <use xlink:href="#DejaVuSans-2e" x="63.623047"/>
       <use xlink:href="#DejaVuSans-30" x="95.410156"/>
      </g>
     </g>
    </g>
    <g id="text_10">
     <!-- X -->
     <g transform="translate(291.775 412.756563) scale(0.1 -0.1)">
      <defs>
       <path id="DejaVuSans-58" d="M 403 4666 
L 1081 4666 
L 2241 2931 
L 3406 4666 
L 4084 4666 
L 2584 2425 
L 4184 0 
L 3506 0 
L 2194 1984 
L 872 0 
L 191 0 
L 1856 2491 
L 403 4666 
z
" transform="scale(0.015625)"/>
      </defs>
      <use xlink:href="#DejaVuSans-58"/>
     </g>
    </g>
   </g>
   <g id="matplotlib.axis_2">
    <g id="ytick_1">
     <g id="line2d_19">
      <path d="M 72 370.972136 
L 518.4 370.972136 
" clip-path="url(#p2a5d5219f3)" style="fill: none; stroke: #b0b0b0; stroke-width: 0.8; stroke-linecap: square"/>
     </g>
     <g id="line2d_20">
      <defs>
       <path id="m572ec86f97" d="M 0 0 
L -3.5 0 
" style="stroke: #000000; stroke-width: 0.8"/>
      </defs>
      <g>
       <use xlink:href="#m572ec86f97" x="72" y="370.972136" style="stroke: #000000; stroke-width: 0.8"/>
      </g>
     </g>
     <g id="text_11">
      <!-- −15 -->
      <g transform="translate(43.895313 374.771355) scale(0.1 -0.1)">
       <defs>
        <path id="DejaVuSans-2212" d="M 678 2272 
L 4684 2272 
L 4684 1741 
L 678 1741 
L 678 2272 
z
" transform="scale(0.015625)"/>
       </defs>
       <use xlink:href="#DejaVuSans-2212"/>
       <use xlink:href="#DejaVuSans-31" x="83.789062"/>
       <use xlink:href="#DejaVuSans-35" x="147.412109"/>
      </g>
     </g>
    </g>
    <g id="ytick_2">
     <g id="line2d_21">
      <path d="M 72 321.937921 
L 518.4 321.937921 
" clip-path="url(#p2a5d5219f3)" style="fill: none; stroke: #b0b0b0; stroke-width: 0.8; stroke-linecap: square"/>
     </g>
     <g id="line2d_22">
      <g>
       <use xlink:href="#m572ec86f97" x="72" y="321.937921" style="stroke: #000000; stroke-width: 0.8"/>
      </g>
     </g>
     <g id="text_12">
      <!-- −10 -->
      <g transform="translate(43.895313 325.737139) scale(0.1 -0.1)">
       <use xlink:href="#DejaVuSans-2212"/>
       <use xlink:href="#DejaVuSans-31" x="83.789062"/>
       <use xlink:href="#DejaVuSans-30" x="147.412109"/>
      </g>
     </g>
    </g>
    <g id="ytick_3">
     <g id="line2d_23">
      <path d="M 72 272.903705 
L 518.4 272.903705 
" clip-path="url(#p2a5d5219f3)" style="fill: none; stroke: #b0b0b0; stroke-width: 0.8; stroke-linecap: square"/>
     </g>
     <g id="line2d_24">
      <g>
       <use xlink:href="#m572ec86f97" x="72" y="272.903705" style="stroke: #000000; stroke-width: 0.8"/>
      </g>
     </g>
     <g id="text_13">
      <!-- −5 -->
      <g transform="translate(50.257812 276.702924) scale(0.1 -0.1)">
       <use xlink:href="#DejaVuSans-2212"/>
       <use xlink:href="#DejaVuSans-35" x="83.789062"/>
      </g>
     </g>
    </g>
    <g id="ytick_4">
     <g id="line2d_25">
      <path d="M 72 223.86949 
L 518.4 223.86949 
" clip-path="url(#p2a5d5219f3)" style="fill: none; stroke: #b0b0b0; stroke-width: 0.8; stroke-linecap: square"/>
     </g>
     <g id="line2d_26">
      <g>
       <use xlink:href="#m572ec86f97" x="72" y="223.86949" style="stroke: #000000; stroke-width: 0.8"/>
      </g>
     </g>
     <g id="text_14">
      <!-- 0 -->
      <g transform="translate(58.6375 227.668708) scale(0.1 -0.1)">
       <use xlink:href="#DejaVuSans-30"/>
      </g>
     </g>
    </g>
    <g id="ytick_5">
     <g id="line2d_27">
      <path d="M 72 174.835274 
L 518.4 174.835274 
" clip-path="url(#p2a5d5219f3)" style="fill: none; stroke: #b0b0b0; stroke-width: 0.8; stroke-linecap: square"/>
     </g>
     <g id="line2d_28">
      <g>
       <use xlink:href="#m572ec86f97" x="72" y="174.835274" style="stroke: #000000; stroke-width: 0.8"/>
      </g>
     </g>
     <g id="text_15">
      <!-- 5 -->
      <g transform="translate(58.6375 178.634493) scale(0.1 -0.1)">
       <use xlink:href="#DejaVuSans-35"/>
      </g>
     </g>
    </g>
    <g id="ytick_6">
     <g id="line2d_29">
      <path d="M 72 125.801059 
L 518.4 125.801059 
" clip-path="url(#p2a5d5219f3)" style="fill: none; stroke: #b0b0b0; stroke-width: 0.8; stroke-linecap: square"/>
     </g>
     <g id="line2d_30">
      <g>
       <use xlink:href="#m572ec86f97" x="72" y="125.801059" style="stroke: #000000; stroke-width: 0.8"/>
      </g>
     </g>
     <g id="text_16">
      <!-- 10 -->
      <g transform="translate(52.275 129.600277) scale(0.1 -0.1)">
       <use xlink:href="#DejaVuSans-31"/>
       <use xlink:href="#DejaVuSans-30" x="63.623047"/>
      </g>
     </g>
    </g>
    <g id="ytick_7">
     <g id="line2d_31">
      <path d="M 72 76.766843 
L 518.4 76.766843 
" clip-path="url(#p2a5d5219f3)" style="fill: none; stroke: #b0b0b0; stroke-width: 0.8; stroke-linecap: square"/>
     </g>
     <g id="line2d_32">
      <g>
       <use xlink:href="#m572ec86f97" x="72" y="76.766843" style="stroke: #000000; stroke-width: 0.8"/>
      </g>
     </g>
     <g id="text_17">
      <!-- 15 -->
      <g transform="translate(52.275 80.566062) scale(0.1 -0.1)">
       <use xlink:href="#DejaVuSans-31"/>
       <use xlink:href="#DejaVuSans-35" x="63.623047"/>
      </g>
     </g>
    </g>
    <g id="text_18">
     <!-- Y -->
     <g transform="translate(37.815625 221.213906) rotate(-90) scale(0.1 -0.1)">
      <defs>
       <path id="DejaVuSans-59" d="M -13 4666 
L 666 4666 
L 1959 2747 
L 3244 4666 
L 3922 4666 
L 2272 2222 
L 2272 0 
L 1638 0 
L 1638 2222 
L -13 4666 
z
" transform="scale(0.015625)"/>
      </defs>
      <use xlink:href="#DejaVuSans-59"/>
     </g>
    </g>
   </g>
   <g id="line2d_33">
    <path d="M 92.290909 223.86949 
L 93.104172 223.987408 
L 93.917435 224.105326 
L 94.730698 224.223243 
L 95.543961 224.341161 
L 96.357224 224.459079 
L 97.170486 224.576997 
L 97.983749 224.694915 
L 98.797012 224.812833 
L 99.610275 224.930751 
L 100.423538 225.048669 
L 101.236801 225.166587 
L 102.050064 225.284505 
L 102.863327 225.402423 
L 103.67659 225.520341 
L 104.489852 225.638259 
L 105.303115 225.756177 
L 106.116378 225.874095 
L 106.929641 225.992013 
L 107.742904 226.109931 
L 108.556167 226.227849 
L 109.36943 226.345767 
L 110.182693 226.463685 
L 110.995956 226.581603 
L 111.809218 226.69952 
L 112.622481 226.817438 
L 113.435744 226.935356 
L 114.249007 227.053274 
L 115.06227 227.171192 
L 115.875533 227.28911 
L 116.688796 227.407028 
L 117.502059 227.524946 
L 118.315322 227.642864 
L 119.128584 227.760782 
L 119.941847 227.8787 
L 120.75511 227.996618 
L 121.568373 228.114536 
L 122.381636 228.232454 
L 123.194899 228.350372 
L 124.008162 228.46829 
L 124.821425 228.586208 
L 125.634688 228.704126 
L 126.44795 228.822044 
L 127.261213 228.939962 
L 128.074476 229.05788 
L 128.887739 229.175798 
L 129.701002 229.293715 
L 130.514265 229.411633 
L 131.327528 229.529551 
L 132.140791 229.647469 
L 132.954054 229.765387 
L 133.767316 229.883305 
L 134.580579 230.001223 
L 135.393842 230.119141 
L 136.207105 230.237059 
L 137.020368 230.354977 
L 137.833631 230.472895 
L 138.646894 230.590813 
L 139.460157 230.708731 
L 140.27342 230.826649 
L 141.086682 230.944567 
L 141.899945 231.062485 
L 142.713208 231.180403 
L 143.526471 231.298321 
L 144.339734 231.416239 
L 145.152997 231.534157 
L 145.96626 231.652075 
L 146.779523 231.769992 
L 147.592786 231.88791 
L 148.406048 232.005828 
L 149.219311 232.123746 
L 150.032574 232.241664 
L 150.845837 232.359582 
L 151.6591 232.4775 
L 152.472363 232.595418 
L 153.285626 232.713336 
L 154.098889 232.831254 
L 154.912152 232.949172 
L 155.725414 233.06709 
L 156.538677 233.185008 
L 157.35194 233.302926 
L 158.165203 233.420844 
L 158.978466 233.538762 
L 159.791729 233.65668 
L 160.604992 233.774598 
L 161.418255 233.892516 
L 162.231518 234.010434 
L 163.04478 234.128352 
L 163.858043 234.246269 
L 164.671306 234.364187 
L 165.484569 234.482105 
L 166.297832 234.600023 
L 167.111095 234.717941 
L 167.924358 234.835859 
L 168.737621 234.953777 
L 169.550884 235.071695 
L 170.364146 235.189613 
L 171.177409 235.307531 
L 171.990672 235.425449 
L 172.803935 235.543367 
L 173.617198 235.661285 
L 174.430461 235.779203 
L 175.243724 235.897121 
L 176.056987 236.015039 
L 176.87025 236.132957 
L 177.683512 236.250875 
L 178.496775 236.368793 
L 179.310038 236.486711 
L 180.123301 236.604629 
L 180.936564 236.722547 
L 181.749827 236.840464 
L 182.56309 236.958382 
L 183.376353 237.0763 
L 184.189616 237.194218 
L 185.002878 237.312136 
L 185.816141 237.430054 
L 186.629404 237.547972 
L 187.442667 237.66589 
L 188.25593 237.783808 
L 189.069193 237.901726 
L 189.882456 238.019644 
L 190.695719 238.137562 
L 191.508982 238.25548 
L 192.322244 238.373398 
L 193.135507 238.491316 
" clip-path="url(#p2a5d5219f3)" style="fill: none; stroke: #008000; stroke-width: 1.5; stroke-linecap: square"/>
   </g>
   <g id="line2d_34">
    <path d="M 193.94877 238.608958 
L 194.762033 238.720259 
L 195.575296 238.822739 
L 196.388559 238.916395 
L 197.201822 239.00123 
L 198.015085 239.077243 
L 198.828348 239.144433 
L 199.64161 239.202801 
L 200.454873 239.252347 
L 201.268136 239.293071 
L 202.081399 239.324973 
L 202.894662 239.348052 
L 203.707925 239.36231 
L 204.521188 239.367745 
L 205.334451 239.364358 
L 206.147714 239.352148 
L 206.960976 239.331117 
L 207.774239 239.301263 
L 208.587502 239.262587 
L 209.400765 239.215089 
L 210.214028 239.158769 
L 211.027291 239.093627 
L 211.840554 239.019662 
L 212.653817 238.936876 
L 213.46708 238.845267 
L 214.280343 238.744835 
L 215.093605 238.635582 
L 215.906868 238.517507 
L 216.720131 238.390609 
L 217.533394 238.254889 
L 218.346657 238.110347 
L 219.15992 237.956983 
L 219.973183 237.794796 
L 220.786446 237.623788 
L 221.599709 237.443957 
L 222.412971 237.255304 
L 223.226234 237.057829 
L 224.039497 236.851532 
L 224.85276 236.636412 
L 225.666023 236.41247 
L 226.479286 236.179706 
L 227.292549 235.93812 
L 228.105812 235.687712 
L 228.919075 235.428482 
L 229.732337 235.160429 
L 230.5456 234.883554 
L 231.358863 234.597857 
L 232.172126 234.303338 
L 232.985389 233.999997 
L 233.798652 233.687833 
L 234.611915 233.366847 
L 235.425178 233.037039 
L 236.238441 232.698409 
L 237.051703 232.350957 
L 237.864966 231.994682 
L 238.678229 231.629586 
L 239.491492 231.255667 
L 240.304755 230.872926 
L 241.118018 230.481363 
L 241.931281 230.080977 
L 242.744544 229.67177 
L 243.557807 229.25374 
L 244.371069 228.826888 
L 245.184332 228.391214 
L 245.997595 227.946717 
L 246.810858 227.493399 
L 247.624121 227.031258 
L 248.437384 226.560295 
L 249.250647 226.08051 
L 250.06391 225.591903 
L 250.877173 225.094474 
L 251.690435 224.588222 
L 252.503698 224.073148 
L 253.316961 223.549252 
L 254.130224 223.016534 
L 254.943487 222.474994 
L 255.75675 221.924631 
L 256.570013 221.365446 
L 257.383276 220.797439 
L 258.196539 220.22061 
L 259.009801 219.634959 
L 259.823064 219.040486 
L 260.636327 218.43719 
L 261.44959 217.825072 
L 262.262853 217.204132 
L 263.076116 216.57437 
L 263.889379 215.935785 
L 264.702642 215.288379 
L 265.515905 214.63215 
L 266.329167 213.967099 
L 267.14243 213.293226 
L 267.955693 212.610531 
L 268.768956 211.919013 
L 269.582219 211.218673 
L 270.395482 210.509512 
L 271.208745 209.791527 
L 272.022008 209.064721 
L 272.835271 208.329093 
L 273.648533 207.584642 
L 274.461796 206.831369 
L 275.275059 206.069274 
L 276.088322 205.298357 
L 276.901585 204.518618 
L 277.714848 203.730056 
L 278.528111 202.932673 
L 279.341374 202.126467 
L 280.154637 201.311439 
L 280.967899 200.487588 
L 281.781162 199.654916 
L 282.594425 198.813421 
L 283.407688 197.963104 
L 284.220951 197.103965 
L 285.034214 196.236004 
L 285.847477 195.359221 
L 286.66074 194.473615 
L 287.474003 193.579187 
L 288.287265 192.675937 
L 289.100528 191.763865 
L 289.913791 190.842971 
L 290.727054 189.913255 
L 291.540317 188.974716 
L 292.35358 188.027355 
L 293.166843 187.071172 
L 293.980106 186.106167 
L 294.793369 185.132339 
" clip-path="url(#p2a5d5219f3)" style="fill: none; stroke: #008000; stroke-width: 1.5; stroke-linecap: square"/>
   </g>
   <g id="line2d_35">
    <path d="M 295.606631 184.15481 
L 296.419894 183.204298 
L 297.233157 182.285924 
L 298.04642 181.399689 
L 298.859683 180.545591 
L 299.672946 179.723631 
L 300.486209 178.933809 
L 301.299472 178.176125 
L 302.112735 177.450579 
L 302.925997 176.757171 
L 303.73926 176.095901 
L 304.552523 175.466769 
L 305.365786 174.869775 
L 306.179049 174.304919 
L 306.992312 173.772201 
L 307.805575 173.271621 
L 308.618838 172.803178 
L 309.432101 172.366874 
L 310.245363 171.962708 
L 311.058626 171.590679 
L 311.871889 171.250789 
L 312.685152 170.943036 
L 313.498415 170.667422 
L 314.311678 170.423945 
L 315.124941 170.212607 
L 315.938204 170.033406 
L 316.751467 169.886343 
L 317.564729 169.771419 
L 318.377992 169.688632 
L 319.191255 169.637983 
L 320.004518 169.619472 
L 320.817781 169.6331 
L 321.631044 169.678865 
L 322.444307 169.756768 
L 323.25757 169.866809 
L 324.070833 170.008988 
L 324.884095 170.183305 
L 325.697358 170.389759 
L 326.510621 170.628352 
L 327.323884 170.899083 
L 328.137147 171.201952 
L 328.95041 171.536959 
L 329.763673 171.904103 
L 330.576936 172.303386 
L 331.390199 172.734806 
L 332.203461 173.198365 
L 333.016724 173.694061 
L 333.829987 174.221896 
L 334.64325 174.781868 
L 335.456513 175.373979 
L 336.269776 175.998227 
L 337.083039 176.654613 
L 337.896302 177.343138 
L 338.709565 178.0638 
L 339.522827 178.8166 
L 340.33609 179.601538 
L 341.149353 180.418614 
L 341.962616 181.267828 
L 342.775879 182.14918 
L 343.589142 183.06267 
L 344.402405 184.008298 
L 345.215668 184.986064 
L 346.028931 185.995968 
L 346.842193 187.03801 
L 347.655456 188.11219 
L 348.468719 189.218507 
L 349.281982 190.356963 
L 350.095245 191.527557 
L 350.908508 192.730288 
L 351.721771 193.965158 
L 352.535034 195.232166 
L 353.348297 196.531311 
L 354.161559 197.862594 
L 354.974822 199.226016 
L 355.788085 200.621575 
L 356.601348 202.049273 
L 357.414611 203.509108 
L 358.227874 205.001081 
L 359.041137 206.525192 
L 359.8544 208.081441 
L 360.667663 209.669829 
L 361.480925 211.290354 
L 362.294188 212.943017 
L 363.107451 214.627818 
L 363.920714 216.344757 
L 364.733977 218.093834 
L 365.54724 219.875048 
L 366.360503 221.688401 
L 367.173766 223.533892 
L 367.987029 225.411521 
L 368.800291 227.321288 
L 369.613554 229.263192 
L 370.426817 231.237235 
L 371.24008 233.243416 
L 372.053343 235.281734 
L 372.866606 237.352191 
L 373.679869 239.454785 
L 374.493132 241.589517 
L 375.306395 243.756388 
L 376.119657 245.955396 
L 376.93292 248.186543 
L 377.746183 250.449827 
L 378.559446 252.745249 
L 379.372709 255.072809 
L 380.185972 257.432507 
L 380.999235 259.824343 
L 381.812498 262.248317 
L 382.625761 264.70443 
L 383.439024 267.192679 
L 384.252286 269.713067 
L 385.065549 272.265593 
L 385.878812 274.850257 
L 386.692075 277.467059 
L 387.505338 280.115999 
L 388.318601 282.797077 
L 389.131864 285.510292 
L 389.945127 288.255646 
L 390.75839 291.033137 
L 391.571652 293.842767 
L 392.384915 296.684535 
L 393.198178 299.55844 
L 394.011441 302.464484 
L 394.824704 305.402665 
L 395.637967 308.372984 
L 396.45123 311.375442 
" clip-path="url(#p2a5d5219f3)" style="fill: none; stroke: #008000; stroke-width: 1.5; stroke-linecap: square"/>
   </g>
   <g id="line2d_36">
    <path d="M 397.264493 314.37849 
L 398.077756 317.305013 
L 398.891018 320.151507 
L 399.704281 322.917971 
L 400.517544 325.604405 
L 401.330807 328.210809 
L 402.14407 330.737184 
L 402.957333 333.183528 
L 403.770596 335.549843 
L 404.583859 337.836128 
L 405.397122 340.042383 
L 406.210384 342.168608 
L 407.023647 344.214804 
L 407.83691 346.18097 
L 408.650173 348.067105 
L 409.463436 349.873211 
L 410.276699 351.599288 
L 411.089962 353.245334 
L 411.903225 354.811351 
L 412.716488 356.297337 
L 413.52975 357.703294 
L 414.343013 359.029222 
L 415.156276 360.275119 
L 415.969539 361.440986 
L 416.782802 362.526824 
L 417.596065 363.532632 
L 418.409328 364.45841 
L 419.222591 365.304158 
L 420.035854 366.069876 
L 420.849116 366.755565 
L 421.662379 367.361224 
L 422.475642 367.886853 
L 423.288905 368.332452 
L 424.102168 368.698021 
L 424.915431 368.983561 
L 425.728694 369.18907 
L 426.541957 369.31455 
L 427.35522 369.36 
L 428.168482 369.32542 
L 428.981745 369.210811 
L 429.795008 369.016171 
L 430.608271 368.741502 
L 431.421534 368.386803 
L 432.234797 367.952074 
L 433.04806 367.437315 
L 433.861323 366.842527 
L 434.674586 366.167708 
L 435.487848 365.41286 
L 436.301111 364.577982 
L 437.114374 363.663074 
L 437.927637 362.668136 
L 438.7409 361.593169 
L 439.554163 360.438172 
L 440.367426 359.203145 
L 441.180689 357.888088 
L 441.993952 356.493001 
L 442.807214 355.017884 
L 443.620477 353.462738 
L 444.43374 351.827562 
L 445.247003 350.112356 
L 446.060266 348.31712 
L 446.873529 346.441854 
L 447.686792 344.486559 
L 448.500055 342.451233 
L 449.313318 340.335878 
L 450.12658 338.140493 
L 450.939843 335.865079 
L 451.753106 333.509634 
L 452.566369 331.07416 
L 453.379632 328.558655 
L 454.192895 325.963121 
L 455.006158 323.287557 
L 455.819421 320.531964 
L 456.632684 317.69634 
L 457.445946 314.780687 
L 458.259209 311.785004 
L 459.072472 308.709291 
L 459.885735 305.553548 
L 460.698998 302.317775 
L 461.512261 299.001973 
L 462.325524 295.606141 
L 463.138787 292.130279 
L 463.95205 288.574387 
L 464.765312 284.938465 
L 465.578575 281.222513 
L 466.391838 277.426532 
L 467.205101 273.550521 
L 468.018364 269.59448 
L 468.831627 265.558409 
L 469.64489 261.442309 
L 470.458153 257.246178 
L 471.271416 252.970018 
L 472.084678 248.613828 
L 472.897941 244.177608 
L 473.711204 239.661358 
L 474.524467 235.065079 
L 475.33773 230.388769 
L 476.150993 225.63243 
L 476.964256 220.796061 
L 477.777519 215.879662 
L 478.590782 210.883233 
L 479.404044 205.806775 
L 480.217307 200.650287 
L 481.03057 195.413769 
L 481.843833 190.097221 
L 482.657096 184.700643 
L 483.470359 179.224035 
L 484.283622 173.667398 
L 485.096885 168.030731 
L 485.910148 162.314034 
L 486.72341 156.517307 
L 487.536673 150.64055 
L 488.349936 144.683764 
L 489.163199 138.646947 
L 489.976462 132.530101 
L 490.789725 126.333225 
L 491.602988 120.05632 
L 492.416251 113.699384 
L 493.229514 107.262419 
L 494.042776 100.745423 
L 494.856039 94.148398 
L 495.669302 87.471344 
L 496.482565 80.714259 
L 497.295828 73.877144 
L 498.109091 66.96 
" clip-path="url(#p2a5d5219f3)" style="fill: none; stroke: #008000; stroke-width: 1.5; stroke-linecap: square"/>
   </g>
   <g id="patch_3">
    <path d="M 72 384.48 
L 72 51.84 
" style="fill: none; stroke: #000000; stroke-width: 0.8; stroke-linejoin: miter; stroke-linecap: square"/>
   </g>
   <g id="patch_4">
    <path d="M 518.4 384.48 
L 518.4 51.84 
" style="fill: none; stroke: #000000; stroke-width: 0.8; stroke-linejoin: miter; stroke-linecap: square"/>
   </g>
   <g id="patch_5">
    <path d="M 72 384.48 
L 518.4 384.48 
" style="fill: none; stroke: #000000; stroke-width: 0.8; stroke-linejoin: miter; stroke-linecap: square"/>
   </g>
   <g id="patch_6">
    <path d="M 72 51.84 
L 518.4 51.84 
" style="fill: none; stroke: #000000; stroke-width: 0.8; stroke-linejoin: miter; stroke-linecap: square"/>
   </g>
   <g id="text_19">
    <!-- Interpolación Spline Cuadratico -->
    <g transform="translate(200.982188 45.84) scale(0.12 -0.12)">
     <defs>
      <path id="DejaVuSans-49" d="M 628 4666 
L 1259 4666 
L 1259 0 
L 628 0 
L 628 4666 
z
" transform="scale(0.015625)"/>
      <path id="DejaVuSans-6e" d="M 3513 2113 
L 3513 0 
L 2938 0 
L 2938 2094 
Q 2938 2591 2744 2837 
Q 2550 3084 2163 3084 
Q 1697 3084 1428 2787 
Q 1159 2491 1159 1978 
L 1159 0 
L 581 0 
L 581 3500 
L 1159 3500 
L 1159 2956 
Q 1366 3272 1645 3428 
Q 1925 3584 2291 3584 
Q 2894 3584 3203 3211 
Q 3513 2838 3513 2113 
z
" transform="scale(0.015625)"/>
      <path id="DejaVuSans-74" d="M 1172 4494 
L 1172 3500 
L 2356 3500 
L 2356 3053 
L 1172 3053 
L 1172 1153 
Q 1172 725 1289 603 
Q 1406 481 1766 481 
L 2356 481 
L 2356 0 
L 1766 0 
Q 1100 0 847 248 
Q 594 497 594 1153 
L 594 3053 
L 172 3053 
L 172 3500 
L 594 3500 
L 594 4494 
L 1172 4494 
z
" transform="scale(0.015625)"/>
      <path id="DejaVuSans-65" d="M 3597 1894 
L 3597 1613 
L 953 1613 
Q 991 1019 1311 708 
Q 1631 397 2203 397 
Q 2534 397 2845 478 
Q 3156 559 3463 722 
L 3463 178 
Q 3153 47 2828 -22 
Q 2503 -91 2169 -91 
Q 1331 -91 842 396 
Q 353 884 353 1716 
Q 353 2575 817 3079 
Q 1281 3584 2069 3584 
Q 2775 3584 3186 3129 
Q 3597 2675 3597 1894 
z
M 3022 2063 
Q 3016 2534 2758 2815 
Q 2500 3097 2075 3097 
Q 1594 3097 1305 2825 
Q 1016 2553 972 2059 
L 3022 2063 
z
" transform="scale(0.015625)"/>
      <path id="DejaVuSans-72" d="M 2631 2963 
Q 2534 3019 2420 3045 
Q 2306 3072 2169 3072 
Q 1681 3072 1420 2755 
Q 1159 2438 1159 1844 
L 1159 0 
L 581 0 
L 581 3500 
L 1159 3500 
L 1159 2956 
Q 1341 3275 1631 3429 
Q 1922 3584 2338 3584 
Q 2397 3584 2469 3576 
Q 2541 3569 2628 3553 
L 2631 2963 
z
" transform="scale(0.015625)"/>
      <path id="DejaVuSans-70" d="M 1159 525 
L 1159 -1331 
L 581 -1331 
L 581 3500 
L 1159 3500 
L 1159 2969 
Q 1341 3281 1617 3432 
Q 1894 3584 2278 3584 
Q 2916 3584 3314 3078 
Q 3713 2572 3713 1747 
Q 3713 922 3314 415 
Q 2916 -91 2278 -91 
Q 1894 -91 1617 61 
Q 1341 213 1159 525 
z
M 3116 1747 
Q 3116 2381 2855 2742 
Q 2594 3103 2138 3103 
Q 1681 3103 1420 2742 
Q 1159 2381 1159 1747 
Q 1159 1113 1420 752 
Q 1681 391 2138 391 
Q 2594 391 2855 752 
Q 3116 1113 3116 1747 
z
" transform="scale(0.015625)"/>
      <path id="DejaVuSans-6f" d="M 1959 3097 
Q 1497 3097 1228 2736 
Q 959 2375 959 1747 
Q 959 1119 1226 758 
Q 1494 397 1959 397 
Q 2419 397 2687 759 
Q 2956 1122 2956 1747 
Q 2956 2369 2687 2733 
Q 2419 3097 1959 3097 
z
M 1959 3584 
Q 2709 3584 3137 3096 
Q 3566 2609 3566 1747 
Q 3566 888 3137 398 
Q 2709 -91 1959 -91 
Q 1206 -91 779 398 
Q 353 888 353 1747 
Q 353 2609 779 3096 
Q 1206 3584 1959 3584 
z
" transform="scale(0.015625)"/>
      <path id="DejaVuSans-6c" d="M 603 4863 
L 1178 4863 
L 1178 0 
L 603 0 
L 603 4863 
z
" transform="scale(0.015625)"/>
      <path id="DejaVuSans-61" d="M 2194 1759 
Q 1497 1759 1228 1600 
Q 959 1441 959 1056 
Q 959 750 1161 570 
Q 1363 391 1709 391 
Q 2188 391 2477 730 
Q 2766 1069 2766 1631 
L 2766 1759 
L 2194 1759 
z
M 3341 1997 
L 3341 0 
L 2766 0 
L 2766 531 
Q 2569 213 2275 61 
Q 1981 -91 1556 -91 
Q 1019 -91 701 211 
Q 384 513 384 1019 
Q 384 1609 779 1909 
Q 1175 2209 1959 2209 
L 2766 2209 
L 2766 2266 
Q 2766 2663 2505 2880 
Q 2244 3097 1772 3097 
Q 1472 3097 1187 3025 
Q 903 2953 641 2809 
L 641 3341 
Q 956 3463 1253 3523 
Q 1550 3584 1831 3584 
Q 2591 3584 2966 3190 
Q 3341 2797 3341 1997 
z
" transform="scale(0.015625)"/>
      <path id="DejaVuSans-63" d="M 3122 3366 
L 3122 2828 
Q 2878 2963 2633 3030 
Q 2388 3097 2138 3097 
Q 1578 3097 1268 2742 
Q 959 2388 959 1747 
Q 959 1106 1268 751 
Q 1578 397 2138 397 
Q 2388 397 2633 464 
Q 2878 531 3122 666 
L 3122 134 
Q 2881 22 2623 -34 
Q 2366 -91 2075 -91 
Q 1284 -91 818 406 
Q 353 903 353 1747 
Q 353 2603 823 3093 
Q 1294 3584 2113 3584 
Q 2378 3584 2631 3529 
Q 2884 3475 3122 3366 
z
" transform="scale(0.015625)"/>
      <path id="DejaVuSans-69" d="M 603 3500 
L 1178 3500 
L 1178 0 
L 603 0 
L 603 3500 
z
M 603 4863 
L 1178 4863 
L 1178 4134 
L 603 4134 
L 603 4863 
z
" transform="scale(0.015625)"/>
      <path id="DejaVuSans-f3" d="M 1959 3097 
Q 1497 3097 1228 2736 
Q 959 2375 959 1747 
Q 959 1119 1226 758 
Q 1494 397 1959 397 
Q 2419 397 2687 759 
Q 2956 1122 2956 1747 
Q 2956 2369 2687 2733 
Q 2419 3097 1959 3097 
z
M 1959 3584 
Q 2709 3584 3137 3096 
Q 3566 2609 3566 1747 
Q 3566 888 3137 398 
Q 2709 -91 1959 -91 
Q 1206 -91 779 398 
Q 353 888 353 1747 
Q 353 2609 779 3096 
Q 1206 3584 1959 3584 
z
M 2394 5119 
L 3016 5119 
L 1998 3944 
L 1519 3944 
L 2394 5119 
z
" transform="scale(0.015625)"/>
      <path id="DejaVuSans-20" transform="scale(0.015625)"/>
      <path id="DejaVuSans-53" d="M 3425 4513 
L 3425 3897 
Q 3066 4069 2747 4153 
Q 2428 4238 2131 4238 
Q 1616 4238 1336 4038 
Q 1056 3838 1056 3469 
Q 1056 3159 1242 3001 
Q 1428 2844 1947 2747 
L 2328 2669 
Q 3034 2534 3370 2195 
Q 3706 1856 3706 1288 
Q 3706 609 3251 259 
Q 2797 -91 1919 -91 
Q 1588 -91 1214 -16 
Q 841 59 441 206 
L 441 856 
Q 825 641 1194 531 
Q 1563 422 1919 422 
Q 2459 422 2753 634 
Q 3047 847 3047 1241 
Q 3047 1584 2836 1778 
Q 2625 1972 2144 2069 
L 1759 2144 
Q 1053 2284 737 2584 
Q 422 2884 422 3419 
Q 422 4038 858 4394 
Q 1294 4750 2059 4750 
Q 2388 4750 2728 4690 
Q 3069 4631 3425 4513 
z
" transform="scale(0.015625)"/>
      <path id="DejaVuSans-43" d="M 4122 4306 
L 4122 3641 
Q 3803 3938 3442 4084 
Q 3081 4231 2675 4231 
Q 1875 4231 1450 3742 
Q 1025 3253 1025 2328 
Q 1025 1406 1450 917 
Q 1875 428 2675 428 
Q 3081 428 3442 575 
Q 3803 722 4122 1019 
L 4122 359 
Q 3791 134 3420 21 
Q 3050 -91 2638 -91 
Q 1578 -91 968 557 
Q 359 1206 359 2328 
Q 359 3453 968 4101 
Q 1578 4750 2638 4750 
Q 3056 4750 3426 4639 
Q 3797 4528 4122 4306 
z
" transform="scale(0.015625)"/>
      <path id="DejaVuSans-75" d="M 544 1381 
L 544 3500 
L 1119 3500 
L 1119 1403 
Q 1119 906 1312 657 
Q 1506 409 1894 409 
Q 2359 409 2629 706 
Q 2900 1003 2900 1516 
L 2900 3500 
L 3475 3500 
L 3475 0 
L 2900 0 
L 2900 538 
Q 2691 219 2414 64 
Q 2138 -91 1772 -91 
Q 1169 -91 856 284 
Q 544 659 544 1381 
z
M 1991 3584 
L 1991 3584 
z
" transform="scale(0.015625)"/>
      <path id="DejaVuSans-64" d="M 2906 2969 
L 2906 4863 
L 3481 4863 
L 3481 0 
L 2906 0 
L 2906 525 
Q 2725 213 2448 61 
Q 2172 -91 1784 -91 
Q 1150 -91 751 415 
Q 353 922 353 1747 
Q 353 2572 751 3078 
Q 1150 3584 1784 3584 
Q 2172 3584 2448 3432 
Q 2725 3281 2906 2969 
z
M 947 1747 
Q 947 1113 1208 752 
Q 1469 391 1925 391 
Q 2381 391 2643 752 
Q 2906 1113 2906 1747 
Q 2906 2381 2643 2742 
Q 2381 3103 1925 3103 
Q 1469 3103 1208 2742 
Q 947 2381 947 1747 
z
" transform="scale(0.015625)"/>
     </defs>
     <use xlink:href="#DejaVuSans-49"/>
     <use xlink:href="#DejaVuSans-6e" x="29.492188"/>
     <use xlink:href="#DejaVuSans-74" x="92.871094"/>
     <use xlink:href="#DejaVuSans-65" x="132.080078"/>
     <use xlink:href="#DejaVuSans-72" x="193.603516"/>
     <use xlink:href="#DejaVuSans-70" x="234.716797"/>
     <use xlink:href="#DejaVuSans-6f" x="298.193359"/>
     <use xlink:href="#DejaVuSans-6c" x="359.375"/>
     <use xlink:href="#DejaVuSans-61" x="387.158203"/>
     <use xlink:href="#DejaVuSans-63" x="448.4375"/>
     <use xlink:href="#DejaVuSans-69" x="503.417969"/>
     <use xlink:href="#DejaVuSans-f3" x="531.201172"/>
     <use xlink:href="#DejaVuSans-6e" x="592.382812"/>
     <use xlink:href="#DejaVuSans-20" x="655.761719"/>
     <use xlink:href="#DejaVuSans-53" x="687.548828"/>
     <use xlink:href="#DejaVuSans-70" x="751.025391"/>
     <use xlink:href="#DejaVuSans-6c" x="814.501953"/>
     <use xlink:href="#DejaVuSans-69" x="842.285156"/>
     <use xlink:href="#DejaVuSans-6e" x="870.068359"/>
     <use xlink:href="#DejaVuSans-65" x="933.447266"/>
     <use xlink:href="#DejaVuSans-20" x="994.970703"/>
     <use xlink:href="#DejaVuSans-43" x="1026.757812"/>
     <use xlink:href="#DejaVuSans-75" x="1096.582031"/>
     <use xlink:href="#DejaVuSans-61" x="1159.960938"/>
     <use xlink:href="#DejaVuSans-64" x="1221.240234"/>
     <use xlink:href="#DejaVuSans-72" x="1284.716797"/>
     <use xlink:href="#DejaVuSans-61" x="1325.830078"/>
     <use xlink:href="#DejaVuSans-74" x="1387.109375"/>
     <use xlink:href="#DejaVuSans-69" x="1426.318359"/>
     <use xlink:href="#DejaVuSans-63" x="1454.101562"/>
     <use xlink:href="#DejaVuSans-6f" x="1509.082031"/>
    </g>
   </g>
   <g id="legend_1">
    <g id="patch_7">
     <path d="M 79 89.59625 
L 199.273438 89.59625 
Q 201.273438 89.59625 201.273438 87.59625 
L 201.273438 58.84 
Q 201.273438 56.84 199.273438 56.84 
L 79 56.84 
Q 77 56.84 77 58.84 
L 77 87.59625 
Q 77 89.59625 79 89.59625 
z
" style="fill: #ffffff; opacity: 0.8; stroke: #cccccc; stroke-linejoin: miter"/>
    </g>
    <g id="line2d_37">
     <path d="M 81 65.338437 
L 91 65.338437 
L 101 65.338437 
" style="fill: none; stroke: #008000; stroke-width: 1.5; stroke-linecap: square"/>
    </g>
    <g id="text_20">
     <!-- Spline Cuadrático -->
     <g transform="translate(109 68.838437) scale(0.1 -0.1)">
      <defs>
       <path id="DejaVuSans-e1" d="M 2194 1759 
Q 1497 1759 1228 1600 
Q 959 1441 959 1056 
Q 959 750 1161 570 
Q 1363 391 1709 391 
Q 2188 391 2477 730 
Q 2766 1069 2766 1631 
L 2766 1759 
L 2194 1759 
z
M 3341 1997 
L 3341 0 
L 2766 0 
L 2766 531 
Q 2569 213 2275 61 
Q 1981 -91 1556 -91 
Q 1019 -91 701 211 
Q 384 513 384 1019 
Q 384 1609 779 1909 
Q 1175 2209 1959 2209 
L 2766 2209 
L 2766 2266 
Q 2766 2663 2505 2880 
Q 2244 3097 1772 3097 
Q 1472 3097 1187 3025 
Q 903 2953 641 2809 
L 641 3341 
Q 956 3463 1253 3523 
Q 1550 3584 1831 3584 
Q 2591 3584 2966 3190 
Q 3341 2797 3341 1997 
z
M 2290 5119 
L 2912 5119 
L 1894 3944 
L 1415 3944 
L 2290 5119 
z
" transform="scale(0.015625)"/>
      </defs>
      <use xlink:href="#DejaVuSans-53"/>
      <use xlink:href="#DejaVuSans-70" x="63.476562"/>
      <use xlink:href="#DejaVuSans-6c" x="126.953125"/>
      <use xlink:href="#DejaVuSans-69" x="154.736328"/>
      <use xlink:href="#DejaVuSans-6e" x="182.519531"/>
      <use xlink:href="#DejaVuSans-65" x="245.898438"/>
      <use xlink:href="#DejaVuSans-20" x="307.421875"/>
      <use xlink:href="#DejaVuSans-43" x="339.208984"/>
      <use xlink:href="#DejaVuSans-75" x="409.033203"/>
      <use xlink:href="#DejaVuSans-61" x="472.412109"/>
      <use xlink:href="#DejaVuSans-64" x="533.691406"/>
      <use xlink:href="#DejaVuSans-72" x="597.167969"/>
      <use xlink:href="#DejaVuSans-e1" x="638.28125"/>
      <use xlink:href="#DejaVuSans-74" x="699.560547"/>
      <use xlink:href="#DejaVuSans-69" x="738.769531"/>
      <use xlink:href="#DejaVuSans-63" x="766.552734"/>
      <use xlink:href="#DejaVuSans-6f" x="821.533203"/>
     </g>
    </g>
    <g id="PathCollection_2">
     <g>
      <use xlink:href="#m45c81dbe15" x="91" y="80.891563" style="fill: #ff0000; stroke: #ff0000"/>
     </g>
    </g>
    <g id="text_21">
     <!-- Puntos dados -->
     <g transform="translate(109 83.516563) scale(0.1 -0.1)">
      <defs>
       <path id="DejaVuSans-50" d="M 1259 4147 
L 1259 2394 
L 2053 2394 
Q 2494 2394 2734 2622 
Q 2975 2850 2975 3272 
Q 2975 3691 2734 3919 
Q 2494 4147 2053 4147 
L 1259 4147 
z
M 628 4666 
L 2053 4666 
Q 2838 4666 3239 4311 
Q 3641 3956 3641 3272 
Q 3641 2581 3239 2228 
Q 2838 1875 2053 1875 
L 1259 1875 
L 1259 0 
L 628 0 
L 628 4666 
z
" transform="scale(0.015625)"/>
       <path id="DejaVuSans-73" d="M 2834 3397 
L 2834 2853 
Q 2591 2978 2328 3040 
Q 2066 3103 1784 3103 
Q 1356 3103 1142 2972 
Q 928 2841 928 2578 
Q 928 2378 1081 2264 
Q 1234 2150 1697 2047 
L 1894 2003 
Q 2506 1872 2764 1633 
Q 3022 1394 3022 966 
Q 3022 478 2636 193 
Q 2250 -91 1575 -91 
Q 1294 -91 989 -36 
Q 684 19 347 128 
L 347 722 
Q 666 556 975 473 
Q 1284 391 1588 391 
Q 1994 391 2212 530 
Q 2431 669 2431 922 
Q 2431 1156 2273 1281 
Q 2116 1406 1581 1522 
L 1381 1569 
Q 847 1681 609 1914 
Q 372 2147 372 2553 
Q 372 3047 722 3315 
Q 1072 3584 1716 3584 
Q 2034 3584 2315 3537 
Q 2597 3491 2834 3397 
z
" transform="scale(0.015625)"/>
      </defs>
      <use xlink:href="#DejaVuSans-50"/>
      <use xlink:href="#DejaVuSans-75" x="58.552734"/>
      <use xlink:href="#DejaVuSans-6e" x="121.931641"/>
      <use xlink:href="#DejaVuSans-74" x="185.310547"/>
      <use xlink:href="#DejaVuSans-6f" x="224.519531"/>
      <use xlink:href="#DejaVuSans-73" x="285.701172"/>
      <use xlink:href="#DejaVuSans-20" x="337.800781"/>
      <use xlink:href="#DejaVuSans-64" x="369.587891"/>
      <use xlink:href="#DejaVuSans-61" x="433.064453"/>
      <use xlink:href="#DejaVuSans-64" x="494.34375"/>
      <use xlink:href="#DejaVuSans-6f" x="557.820312"/>
      <use xlink:href="#DejaVuSans-73" x="619.001953"/>
     </g>
    </g>
   </g>
  </g>
 </g>
 <defs>
  <clipPath id="p2a5d5219f3">
   <rect x="72" y="51.84" width="446.4" height="332.64"/>
  </clipPath>
 </defs>
</svg>
